<svg width="50" height="38" viewBox="0 0 50 38" fill="none" xmlns="http://www.w3.org/2000/svg">
<g clip-path="url(#clip0_23_3506)">
<path d="M0 29.027C0.111111 28.4757 0.212121 27.9135 0.353535 27.3622C2.0505 20.8108 9.0606 17.654 14.6364 20.9081C14.8182 21.0162 15 21.1243 15.1818 21.2324C20.4343 15.4378 29.1717 15.427 34.4646 20.854C35.8283 19.8703 37.3434 19.2973 38.9798 19.0486C44.1515 18.2703 49.3737 22.5622 49.899 28.1081C50.0303 29.5351 50.0101 30.9946 49.9899 32.4432C49.9798 33.4919 49.1919 34.3459 48.2222 34.4973C48 34.5297 47.7677 34.5405 47.5455 34.5405C44.7778 34.5405 42.0101 34.5405 39.2424 34.5405C39.0505 34.5405 38.8586 34.5405 38.6162 34.5405C38.6061 34.7243 38.5859 34.8757 38.5859 35.027C38.5556 36.854 37.4747 38.0108 35.7475 38.0108C33.5657 38.0216 31.3838 38.0108 29.202 38.0108C24.303 38.0108 19.404 38.0108 14.505 38.0108C12.6263 38.0108 11.7071 37.2 11.3737 35.2C11.2121 35.2 11.0303 35.2 10.8586 35.2C8.12121 35.2 5.39394 35.1676 2.65657 35.2108C1.36364 35.2324 0.454545 34.7676 0 33.427C0 31.9568 0 30.4973 0 29.027ZM24.9798 36.2486C28.5758 36.2486 32.1717 36.2486 35.7677 36.2486C36.5859 36.2486 36.9596 35.8595 36.9697 34.9838C36.9798 34.4432 36.9596 33.9027 36.9697 33.3622C36.9798 31.5568 37.0303 29.7405 36.5758 27.9676C34.7576 20.8973 27.8182 16.9081 21.2828 19.1784C16.6162 20.8 13.3737 25.2216 13.0707 30.4432C12.9899 31.9027 13.0404 33.3622 13.0202 34.8324C13.0101 35.8703 13.3535 36.2486 14.3333 36.2486C17.8889 36.2486 21.4343 36.2486 24.9798 36.2486ZM35.5657 22.1838C37.9091 25.2865 38.798 28.854 38.5657 32.7351C38.6768 32.7784 38.7071 32.7892 38.7374 32.7892C41.7677 32.7892 44.7879 32.7892 47.8182 32.8C48.2323 32.8 48.3939 32.5513 48.3939 32.1405C48.3838 31.1135 48.4242 30.0865 48.3737 29.0595C48.2121 25.9784 46.8687 23.6324 44.4343 22.0108C41.7273 20.1946 37.9798 20.2811 35.5657 22.1838ZM14.1212 22.6162C13.9798 22.5189 13.899 22.4649 13.8182 22.4108C9.18182 19.654 3.06061 22.4865 1.88889 28.0108C1.57576 29.4919 1.67677 31.0919 1.61616 32.627C1.58586 33.3297 1.71717 33.4378 2.38384 33.4378C5.23232 33.4378 8.08081 33.4378 10.9293 33.4378C11.0808 33.4378 11.2424 33.427 11.4545 33.4054C11.1717 29.4595 11.8485 25.827 14.1212 22.6162Z" fill="#04D0E2"/>
<path d="M24.7172 15.8162C20.6061 15.8054 17.2727 12.2703 17.2727 7.9027C17.2727 3.54595 20.6263 0 24.7273 0C28.8384 0 32.1717 3.55676 32.1717 7.91351C32.1717 12.2703 28.8182 15.8162 24.7172 15.8162ZM24.697 14.0865C27.9091 14.0973 30.5556 11.3189 30.5657 7.93514C30.5758 4.52973 27.9596 1.75135 24.7475 1.74054C21.5253 1.72973 18.899 4.48649 18.8788 7.88108C18.8586 11.2649 21.5051 14.0757 24.697 14.0865Z" fill="#04D0E2"/>
<path d="M45.9091 11.6C45.899 14.973 43.2626 17.7514 40.0808 17.7298C36.9091 17.7082 34.2828 14.8973 34.303 11.5352C34.3232 8.16221 36.9596 5.39464 40.1414 5.41626C43.3333 5.42707 45.9192 8.20545 45.9091 11.6ZM40.1111 15.9784C42.4242 15.9784 44.303 14.0109 44.303 11.5676C44.303 9.13518 42.4343 7.1568 40.1212 7.14599C37.798 7.14599 35.9394 9.10275 35.9394 11.5568C35.9293 14.0109 37.7879 15.9784 40.1111 15.9784Z" fill="#04D0E2"/>
<path d="M9.90909 5.83789C13.0808 5.83789 15.7071 8.63789 15.697 12.0109C15.6869 15.3838 13.0505 18.1622 9.87879 18.1514C6.69697 18.1406 4.09091 15.373 4.10101 11.9784C4.10101 8.60546 6.71717 5.83789 9.90909 5.83789ZM9.87879 16.4109C12.202 16.4217 14.0707 14.4541 14.0707 12.0109C14.0707 9.55681 12.2222 7.58924 9.90909 7.58924C7.59596 7.58924 5.71717 9.546 5.70707 11.9892C5.68687 14.4001 7.56566 16.4001 9.87879 16.4109Z" fill="#04D0E2"/>
</g>
<defs>
<clipPath id="clip0_23_3506">
<rect width="50" height="38" fill="white"/>
</clipPath>
</defs>
</svg>
