<svg width="21" height="16" viewBox="0 0 21 16" fill="none" xmlns="http://www.w3.org/2000/svg">
<g clip-path="url(#clip0_490_1715)">
<path d="M0 12.2219C0.0466667 11.9897 0.0890909 11.753 0.148485 11.5209C0.861212 8.76239 3.80545 7.43323 6.14727 8.80336C6.22364 8.84888 6.3 8.8944 6.37636 8.93992C8.58242 6.50009 12.2521 6.49554 14.4752 8.7806C15.0479 8.36638 15.6842 8.12512 16.3715 8.02043C18.5436 7.69269 20.737 9.4998 20.9576 11.8349C21.0127 12.4358 21.0042 13.0503 20.9958 13.6603C20.9915 14.1018 20.6606 14.4614 20.2533 14.5251C20.16 14.5388 20.0624 14.5433 19.9691 14.5433C18.8067 14.5433 17.6442 14.5433 16.4818 14.5433C16.4012 14.5433 16.3206 14.5433 16.2188 14.5433C16.2145 14.6207 16.2061 14.6844 16.2061 14.7482C16.1933 15.5174 15.7394 16.0045 15.0139 16.0045C14.0976 16.009 13.1812 16.0045 12.2648 16.0045C10.2073 16.0045 8.1497 16.0045 6.09212 16.0045C5.30303 16.0045 4.91697 15.6631 4.77697 14.821C4.70909 14.821 4.63273 14.821 4.56061 14.821C3.41091 14.821 2.26545 14.8073 1.11576 14.8256C0.572727 14.8347 0.190909 14.6389 0 14.0745C0 13.4554 0 12.8409 0 12.2219ZM10.4915 15.2625C12.0018 15.2625 13.5121 15.2625 15.0224 15.2625C15.3661 15.2625 15.523 15.0987 15.5273 14.73C15.5315 14.5024 15.523 14.2748 15.5273 14.0472C15.5315 13.287 15.5527 12.5223 15.3618 11.7758C14.5982 8.79881 11.6836 7.11915 8.93879 8.07505C6.97879 8.75784 5.61697 10.6196 5.4897 12.8182C5.45576 13.4327 5.47697 14.0472 5.46848 14.6662C5.46424 15.1032 5.60848 15.2625 6.02 15.2625C7.51333 15.2625 9.00242 15.2625 10.4915 15.2625ZM14.9376 9.34049C15.9218 10.6469 16.2951 12.149 16.1976 13.7832C16.2442 13.8014 16.257 13.8059 16.2697 13.8059C17.5424 13.8059 18.8109 13.8059 20.0836 13.8105C20.2576 13.8105 20.3255 13.7058 20.3255 13.5328C20.3212 13.1004 20.3382 12.6679 20.317 12.2355C20.2491 10.9382 19.6848 9.95044 18.6624 9.26766C17.5255 8.50293 15.9515 8.53935 14.9376 9.34049ZM5.93091 9.52256C5.87151 9.4816 5.83758 9.45884 5.80364 9.43608C3.85636 8.27534 1.28545 9.46794 0.793333 11.794C0.661818 12.4176 0.704242 13.0913 0.678788 13.7376C0.666061 14.0335 0.721212 14.079 1.00121 14.079C2.19758 14.079 3.39394 14.079 4.5903 14.079C4.65394 14.079 4.72182 14.0745 4.81091 14.0654C4.69212 12.4039 4.97636 10.8745 5.93091 9.52256Z" fill="#84828A"/>
<path d="M10.3812 6.65946C8.65455 6.65491 7.25455 5.16643 7.25455 3.32745C7.25455 1.49303 8.66303 0 10.3855 0C12.1121 0 13.5121 1.49758 13.5121 3.33201C13.5121 5.16643 12.1036 6.65946 10.3812 6.65946ZM10.3727 5.93115C11.7218 5.9357 12.8333 4.76586 12.8376 3.34111C12.8418 1.90725 11.743 0.737411 10.3939 0.732859C9.04061 0.728307 7.93758 1.88905 7.92909 3.31835C7.92061 4.7431 9.03212 5.9266 10.3727 5.93115Z" fill="#84828A"/>
<path d="M19.2818 4.88427C19.2776 6.30447 18.1703 7.47431 16.8339 7.46521C15.5018 7.4561 14.3988 6.2726 14.4073 4.85696C14.4158 3.43676 15.523 2.27147 16.8594 2.28057C18.2 2.28512 19.2861 3.45497 19.2818 4.88427ZM16.8467 6.7278C17.8182 6.7278 18.6073 5.89935 18.6073 4.87061C18.6073 3.84643 17.8224 3.01343 16.8509 3.00888C15.8752 3.00888 15.0945 3.83278 15.0945 4.86606C15.0903 5.89935 15.8709 6.7278 16.8467 6.7278Z" fill="#84828A"/>
<path d="M4.16182 2.45801C5.49394 2.45801 6.59697 3.63696 6.59273 5.05715C6.58849 6.47735 5.48121 7.6472 4.14909 7.64264C2.81273 7.63809 1.71818 6.4728 1.72242 5.0435C1.72242 3.6233 2.82121 2.45801 4.16182 2.45801ZM4.14909 6.90979C5.12485 6.91434 5.9097 6.08589 5.9097 5.05715C5.9097 4.02387 5.13333 3.19542 4.16182 3.19542C3.1903 3.19542 2.40121 4.01932 2.39697 5.04805C2.38849 6.06313 3.17758 6.90523 4.14909 6.90979Z" fill="#84828A"/>
</g>
<defs>
<clipPath id="clip0_490_1715">
<rect width="21" height="16" fill="white"/>
</clipPath>
</defs>
</svg>
