<svg width="15" height="11" viewBox="0 0 15 11" fill="none" xmlns="http://www.w3.org/2000/svg">
<path d="M7.50016 0.166748C9.35816 0.166748 11.0088 1.00475 12.1842 2.04208C12.7742 2.56275 13.2602 3.14741 13.6028 3.72941C13.9395 4.30075 14.1668 4.92008 14.1668 5.50008C14.1668 6.08008 13.9402 6.69941 13.6028 7.27075C13.2602 7.85275 12.7742 8.43741 12.1842 8.95808C11.0088 9.99541 9.3575 10.8334 7.50016 10.8334C5.64216 10.8334 3.9915 9.99541 2.81616 8.95808C2.22616 8.43741 1.74016 7.85275 1.3975 7.27075C1.06016 6.69941 0.833496 6.08008 0.833496 5.50008C0.833496 4.92008 1.06016 4.30075 1.3975 3.72941C1.74016 3.14741 2.22616 2.56275 2.81616 2.04208C3.9915 1.00475 5.64283 0.166748 7.50016 0.166748ZM7.50016 1.50008C6.04416 1.50008 4.69483 2.16208 3.69883 3.04141C3.20283 3.47875 2.81083 3.95675 2.54616 4.40608C2.2755 4.86608 2.16683 5.24675 2.16683 5.50008C2.16683 5.75341 2.2755 6.13408 2.54616 6.59408C2.81083 7.04341 3.20283 7.52075 3.69883 7.95875C4.69483 8.83808 6.04416 9.50008 7.50016 9.50008C8.95616 9.50008 10.3055 8.83808 11.3015 7.95875C11.7975 7.52075 12.1895 7.04341 12.4542 6.59408C12.7248 6.13408 12.8335 5.75341 12.8335 5.50008C12.8335 5.24675 12.7248 4.86608 12.4542 4.40608C12.1895 3.95675 11.7975 3.47941 11.3015 3.04141C10.3055 2.16208 8.95616 1.50008 7.50016 1.50008ZM7.50016 3.50008C7.55883 3.50008 7.61683 3.50253 7.67416 3.50741C7.52942 3.76132 7.47211 4.05574 7.51105 4.3454C7.54999 4.63506 7.68303 4.90389 7.88969 5.11056C8.09635 5.31722 8.36519 5.45025 8.65484 5.48919C8.9445 5.52813 9.23893 5.47082 9.49283 5.32608C9.52789 5.72753 9.44086 6.1302 9.24315 6.48134C9.04544 6.83248 8.74627 7.1157 8.38484 7.2939C8.0234 7.4721 7.61657 7.53696 7.21765 7.47999C6.81872 7.42302 6.44631 7.24686 6.14921 6.97461C5.85211 6.70236 5.64418 6.34672 5.55267 5.95427C5.46115 5.56183 5.49033 5.15089 5.63636 4.77531C5.78239 4.39972 6.03847 4.07701 6.37105 3.84946C6.70363 3.62191 7.09719 3.50013 7.50016 3.50008Z" fill="white"/>
</svg>
