<svg width="32" height="21" viewBox="0 0 32 21" fill="none" xmlns="http://www.w3.org/2000/svg">
<g clip-path="url(#clip0_53_619)">
<path d="M30.8598 9.82386C30.0521 10.8739 28.1986 13.0057 26.4476 13.0057C24.67 13.0057 23.9994 11.0396 23.7785 10.142C23.7186 9.8769 23.6933 9.70189 23.6933 9.70189C23.6933 9.70189 23.5909 9.83446 23.4046 10.0148C22.8857 10.5146 21.6948 11.3869 20.2578 10.7439C18.3458 9.87954 16.8489 6.20322 16.2462 4.50094C16.0506 3.97064 15.9481 3.6286 15.9481 3.6286C15.9481 3.6286 15.8457 3.96666 15.6514 4.50094C15.0394 6.20322 13.5225 9.89678 11.6132 10.7519C10.2693 11.3617 9.14766 10.6339 8.57818 10.1076C8.57818 10.1169 8.57817 10.1169 8.56885 10.1076C8.42668 9.98704 8.29575 9.85392 8.17768 9.70985C8.17768 9.70985 8.1444 9.9392 8.06723 10.2693H8.05925C7.82108 11.2093 7.12786 13.0136 5.43273 13.0136C3.66441 13.0136 1.78566 10.8447 0.993977 9.81192C0.773104 9.5229 0.637378 9.32934 0.602783 9.28162L0.840959 9.89148L4.5306 19.2513L27.3484 19.2354L31.0207 9.91666L31.2762 9.26438C31.2416 9.30681 31.0979 9.51761 30.8598 9.82386ZM6.28296 17.9972L5.43273 17.15L6.28296 16.3028L7.13186 17.15L6.28296 17.9972ZM10.1669 17.9972L9.31796 17.15L10.1669 16.3028L11.0171 17.15L10.1669 17.9972ZM14.0614 17.9972L13.2112 17.15L14.0614 16.3028L14.9116 17.15L14.0614 17.9972ZM14.5205 11.3989L15.9987 8.09507L17.4876 11.3989L15.9987 14.6934L14.5205 11.3989ZM17.9466 17.9972L17.0964 17.15L17.9466 16.3028L18.7969 17.15L17.9466 17.9972ZM21.8319 17.9972L20.9817 17.15L21.8319 16.3028L22.6821 17.15L21.8319 17.9972ZM25.7158 17.9972L24.8656 17.15L25.7158 16.3028L26.566 17.15L25.7158 17.9972Z" fill="#CA9D46"/>
<path d="M15.9534 3.58351C15.9534 3.58351 15.2762 2.62632 15.0793 1.68503C14.8225 0.446775 15.4997 0 15.9534 0C16.4071 0 17.0844 0.446775 16.8263 1.68503C16.6307 2.62632 15.9534 3.58351 15.9534 3.58351Z" fill="#CA9D46"/>
<path d="M16.8716 3.63125C16.8716 3.87387 16.7748 4.10654 16.6027 4.27809C16.4305 4.44965 16.197 4.54603 15.9535 4.54603C15.8328 4.5462 15.7133 4.52267 15.6017 4.47678C15.4902 4.43089 15.3888 4.36352 15.3034 4.27856C15.218 4.1936 15.1503 4.0927 15.1041 3.98163C15.0579 3.87055 15.0341 3.75149 15.0341 3.63125C15.0341 3.51101 15.0579 3.39195 15.1041 3.28088C15.1503 3.16981 15.218 3.0689 15.3034 2.98394C15.3888 2.89898 15.4902 2.83164 15.6017 2.78574C15.7133 2.73985 15.8328 2.71632 15.9535 2.71649C16.197 2.71649 16.4305 2.81286 16.6027 2.98441C16.7748 3.15596 16.8716 3.38864 16.8716 3.63125Z" fill="#CA9D46"/>
<path d="M8.74714 9.70721C8.74679 9.85712 8.68678 10.0008 8.58027 10.1066C8.47376 10.2125 8.32946 10.272 8.179 10.272C8.02867 10.272 7.88449 10.2125 7.77819 10.1066C7.67189 10.0006 7.61218 9.857 7.61218 9.70721C7.61218 9.55731 7.67185 9.41351 7.77811 9.30738C7.88437 9.20126 8.02855 9.14146 8.179 9.14111C8.32969 9.14111 8.47419 9.20075 8.58074 9.30691C8.68729 9.41308 8.74714 9.55708 8.74714 9.70721Z" fill="#CA9D46"/>
<path d="M24.2654 9.61836C24.2651 9.75632 24.2098 9.8885 24.1118 9.98593C24.0138 10.0834 23.881 10.1381 23.7425 10.1381C23.6041 10.1381 23.4713 10.0834 23.3732 9.98593C23.2752 9.8885 23.22 9.75632 23.2196 9.61836C23.2196 9.48018 23.2747 9.34766 23.3728 9.24995C23.4708 9.15224 23.6038 9.09735 23.7425 9.09735C23.8812 9.09735 24.0142 9.15224 24.1123 9.24995C24.2103 9.34766 24.2654 9.48018 24.2654 9.61836Z" fill="#CA9D46"/>
<path d="M1.25473 9.30152C1.25473 9.46725 1.18874 9.62621 1.07125 9.74353C0.953765 9.86084 0.794369 9.92692 0.628037 9.92727C0.461583 9.92692 0.302034 9.86088 0.184333 9.74361C0.0666314 9.62633 0.000351542 9.46737 0 9.30152C0.000352399 9.13579 0.0666746 8.97697 0.184414 8.8599C0.302153 8.74284 0.461705 8.67709 0.628037 8.67709C0.794247 8.67709 0.953645 8.74288 1.07117 8.85998C1.1887 8.97709 1.25473 9.13591 1.25473 9.30152Z" fill="#CA9D46"/>
<path d="M32.0013 9.24584C32.0013 9.33968 31.9828 9.43259 31.9468 9.51929C31.9107 9.60599 31.8579 9.68476 31.7913 9.75112C31.7247 9.81747 31.6456 9.8701 31.5586 9.90601C31.4716 9.94192 31.3784 9.9604 31.2842 9.9604C31.0941 9.96005 30.9119 9.88466 30.7775 9.75073C30.643 9.6168 30.5674 9.43525 30.567 9.24584C30.567 9.15199 30.5856 9.05906 30.6216 8.97237C30.6576 8.88567 30.7105 8.80689 30.7771 8.74054C30.8437 8.67418 30.9227 8.62155 31.0097 8.58564C31.0967 8.54973 31.19 8.53125 31.2842 8.53125C31.3784 8.53125 31.4716 8.54973 31.5586 8.58564C31.6456 8.62155 31.7247 8.67418 31.7913 8.74054C31.8579 8.80689 31.9107 8.88567 31.9468 8.97237C31.9828 9.05906 32.0013 9.15199 32.0013 9.24584Z" fill="#CA9D46"/>
<path d="M28.0535 20.1316H3.94641V21H28.0535V20.1316Z" fill="#CA9D46"/>
</g>
<defs>
<clipPath id="clip0_53_619">
<rect width="32" height="21" fill="white"/>
</clipPath>
</defs>
</svg>
