<svg width="39" height="40" viewBox="0 0 39 40" fill="none" xmlns="http://www.w3.org/2000/svg">
<path d="M34.6991 40C23.835 40 12.971 40 2.10686 40C2.03494 39.9704 1.96725 39.9365 1.89533 39.9196C0.753082 39.5981 0.00427156 38.6378 0.00427156 37.4447C4.09913e-05 30.972 4.09913e-05 24.5034 0.00427156 18.0349C0.00427156 17.1084 0.427328 16.3808 1.20998 15.89C1.41305 15.7631 1.48497 15.6362 1.48497 15.3993C1.48497 14.0793 2.27609 13.3051 3.60448 13.2967C4.01485 13.2967 4.42521 13.2967 4.83558 13.2967C4.86096 13.1698 4.88634 13.0936 4.89481 13.0175C5.16133 10.3099 5.43632 7.60656 5.68592 4.899C5.80861 3.55368 6.65049 2.8514 7.99158 2.98678C10.7795 3.27446 13.5717 3.54944 16.3639 3.82443C16.825 3.87097 17.0831 4.09942 17.0577 4.44632C17.0281 4.81861 16.7192 5.00476 16.2496 4.95822C13.4194 4.67901 10.5891 4.39979 7.7589 4.1248C7.16239 4.06557 6.90433 4.26864 6.8451 4.86092C6.58703 7.41195 6.33743 9.96298 6.0836 12.514C5.98629 13.4913 5.89322 14.4728 5.79592 15.45C6.4855 15.5896 6.50242 15.5769 6.56588 14.9339C6.76895 12.8482 6.97624 10.7668 7.18354 8.68112C7.23854 8.11846 7.4966 7.6954 8.03389 7.47541C8.68962 7.20888 9.21421 6.7816 9.61189 6.19355C9.92495 5.73242 10.3692 5.54627 10.9234 5.60127C12.3068 5.74088 13.6902 5.87203 15.0735 6.01163C15.5304 6.05817 15.7843 6.30354 15.7377 6.65468C15.6912 7.01005 15.412 7.17927 14.9424 7.13696C13.6225 7.00582 12.3068 6.88313 10.9868 6.73929C10.7372 6.71391 10.5807 6.77314 10.4368 6.98889C9.99687 7.6404 9.40459 8.12692 8.68116 8.42729C8.40618 8.54151 8.31733 8.7065 8.29195 8.97726C8.18619 10.1026 8.07196 11.2322 7.96197 12.3575C7.86043 13.3897 7.76313 14.422 7.6616 15.5093C8.46964 15.5093 9.24806 15.4923 10.0223 15.5177C10.3311 15.5262 10.5088 15.4204 10.6822 15.1666C13.834 10.5087 16.9985 5.86779 20.146 1.21417C20.5225 0.659968 20.9413 0.198837 21.6013 0C21.834 0 22.0709 0 22.3036 0C22.5363 0.109995 22.7901 0.190375 23.0016 0.329984C26.8557 2.95293 30.7097 5.58012 34.5595 8.21999C35.448 8.82919 35.6426 9.89952 35.0545 10.8006C34.5849 11.5198 34.0942 12.2221 33.6119 12.9328C33.5442 13.0344 33.4807 13.1444 33.3834 13.3009C33.578 13.3009 33.705 13.2924 33.8319 13.3009C34.7753 13.3559 35.5156 13.9651 35.6849 14.8535C35.7356 15.1327 35.6976 15.4246 35.7272 15.7081C35.7399 15.835 35.7864 15.9958 35.8752 16.0762C36.5352 16.66 36.8102 17.3876 36.806 18.2591C36.7933 19.8329 36.8017 21.4109 36.8017 22.9847C36.8017 23.1243 36.8017 23.2639 36.8017 23.4331C36.9879 23.4331 37.1317 23.4331 37.2713 23.4331C38.164 23.4416 38.6759 23.9492 38.6759 24.8377C38.6801 26.7922 38.6801 28.7425 38.6759 30.697C38.6759 31.5389 38.164 32.0508 37.3179 32.0762C37.1571 32.0804 36.9921 32.0762 36.8017 32.0762C36.8017 32.275 36.8017 32.4146 36.8017 32.5584C36.8017 34.1872 36.8102 35.8117 36.7975 37.4405C36.789 38.6378 36.0487 39.5939 34.9107 39.9196C34.8388 39.9408 34.7711 39.9746 34.6991 40ZM35.6383 32.0762C35.4395 32.0762 35.283 32.0762 35.1307 32.0762C33.5442 32.0762 31.962 32.0888 30.3755 32.0719C27.4818 32.0465 25.4596 29.5843 26.0434 26.8176C26.4453 24.918 28.1671 23.4669 30.1047 23.4416C31.8054 23.4162 33.5104 23.4331 35.211 23.4331C35.3506 23.4331 35.486 23.4331 35.6214 23.4331C35.6214 22.5151 35.6214 21.652 35.6214 20.7932C24.1185 20.7932 12.6494 20.7932 1.18037 20.7932C1.18037 25.4553 1.18037 30.092 1.18037 34.7541C2.19147 34.7541 3.1645 34.7499 4.13753 34.7583C4.53521 34.7626 4.7552 34.9656 4.76789 35.2998C4.78058 35.6552 4.55213 35.871 4.13753 35.8794C3.74832 35.8879 3.35911 35.8837 2.9699 35.8837C2.37762 35.8837 1.78111 35.8837 1.17614 35.8837C1.17614 36.5436 1.10845 37.1613 1.20152 37.7578C1.25229 38.0751 1.51881 38.4347 1.7938 38.6166C2.06879 38.7985 2.47492 38.8535 2.82606 38.8535C13.2079 38.8662 23.5897 38.862 33.9757 38.862C34.1196 38.862 34.2634 38.862 34.403 38.8535C34.9784 38.807 35.5283 38.4135 35.596 37.8466C35.6722 37.2121 35.6129 36.5648 35.6129 35.8879C35.4268 35.8879 35.2576 35.8879 35.0926 35.8879C26.1534 35.8879 17.21 35.8879 8.2708 35.8879C8.10157 35.8879 7.93235 35.8964 7.76313 35.8752C7.46276 35.8371 7.29777 35.6298 7.28931 35.3421C7.28085 35.0333 7.44584 34.8218 7.76313 34.7753C7.91543 34.7541 8.07619 34.7626 8.22849 34.7626C17.1931 34.7626 26.1619 34.7626 35.1264 34.7626C35.2914 34.7626 35.4564 34.7626 35.6299 34.7626C35.6383 33.8403 35.6383 32.9857 35.6383 32.0762ZM35.6553 19.6002C35.6553 19.1391 35.6553 18.7245 35.6553 18.3099C35.6553 17.1507 35.1518 16.6473 33.9926 16.6473C23.5981 16.6473 13.1994 16.6473 2.80491 16.6473C2.68645 16.6473 2.57223 16.643 2.45377 16.6515C1.85303 16.6896 1.26498 17.1211 1.19729 17.6965C1.1296 18.3141 1.1846 18.9529 1.1846 19.6002C12.6664 19.6002 24.1354 19.6002 35.6553 19.6002ZM26.3184 15.5008C26.9191 15.5008 27.5029 15.5093 28.0825 15.4923C28.1841 15.4881 28.311 15.3823 28.3744 15.285C29.0386 14.3205 29.7028 13.3559 30.3417 12.3786C30.422 12.2559 30.4432 12.0233 30.384 11.8964C30.0244 11.1518 29.8594 10.3733 29.9355 9.54839C29.9567 9.30725 29.8721 9.16764 29.6775 9.03649C27.7949 7.75886 25.9165 6.477 24.0423 5.18667C23.835 5.04283 23.6701 5.02591 23.4416 5.14437C22.7563 5.49551 22.0159 5.63511 21.2502 5.55896C20.954 5.52935 20.7806 5.60973 20.6114 5.86356C18.513 8.96457 16.4019 12.0613 14.2994 15.1581C14.2359 15.2512 14.1851 15.3527 14.0963 15.505C14.9678 15.505 15.7843 15.4923 16.5966 15.5135C16.8885 15.5219 16.9646 15.4077 16.9985 15.137C17.3369 12.5352 19.9387 10.7033 22.5109 11.2152C24.127 11.5325 25.9969 12.844 26.3184 15.5008ZM33.6161 24.5669C32.5796 24.5669 31.5389 24.5584 30.5024 24.5711C30.1809 24.5754 29.8509 24.588 29.5379 24.6642C27.9937 25.028 26.9276 26.5003 27.0884 28.0106C27.2703 29.6943 28.5691 30.9254 30.2317 30.9381C32.5416 30.9551 34.8514 30.9381 37.1656 30.9508C37.504 30.955 37.5421 30.8027 37.5421 30.5278C37.5336 28.679 37.5336 26.8345 37.5463 24.9857C37.5505 24.6642 37.449 24.5584 37.1275 24.5627C35.9514 24.5754 34.7838 24.5669 33.6161 24.5669ZM29.6436 15.4543C30.1936 15.5896 30.5278 15.4839 30.8324 15.0143C31.8477 13.4447 32.9265 11.909 33.9799 10.3607C34.3903 9.75992 34.3311 9.44262 33.7303 9.03226C30.0074 6.48969 26.2845 3.94712 22.5616 1.40455C21.9567 0.994183 21.6436 1.05341 21.2375 1.65415C18.1788 6.14701 15.1243 10.6399 12.0698 15.137C12.0022 15.2385 11.9387 15.3485 11.871 15.4585C12.421 15.6023 12.7679 15.4712 13.064 14.9847C13.6225 14.0624 14.2655 13.1909 14.8705 12.3025C16.495 9.91645 18.1196 7.53041 19.7356 5.14014C20.0614 4.66208 20.476 4.35748 21.064 4.42094C21.7875 4.50132 22.4559 4.38287 23.1032 4.05711C23.5981 3.80328 24.0804 3.84558 24.5373 4.15865C26.513 5.50397 28.4844 6.85352 30.4601 8.20307C30.9339 8.52459 31.1328 8.97726 31.0651 9.54839C30.9932 10.1745 31.0905 10.7795 31.3866 11.3252C31.7335 11.964 31.6616 12.5309 31.247 13.1063C30.7055 13.8636 30.1936 14.642 29.6436 15.4543ZM18.1153 15.4712C20.4718 15.4712 22.7986 15.4712 25.1254 15.4712C25.045 13.7282 23.4416 12.2729 21.6394 12.2686C19.816 12.2644 18.2211 13.707 18.1153 15.4712ZM31.8731 15.4881C32.8208 15.4881 33.6923 15.4881 34.5595 15.4881C34.6103 15.0312 34.5341 14.6716 34.2338 14.6039C33.705 14.4897 33.1465 14.5066 32.5965 14.4728C32.5712 14.4728 32.5373 14.5151 32.5162 14.5489C32.3131 14.8408 32.11 15.137 31.8731 15.4881ZM4.72135 14.4474C4.2983 14.4474 3.87524 14.4389 3.45218 14.4474C2.85144 14.4601 2.55953 14.8408 2.67376 15.5008C3.0249 15.5008 3.38026 15.5008 3.73986 15.5008C4.71289 15.505 4.71289 15.505 4.72135 14.4474Z" fill="#04D0E2"/>
</svg>
