<svg width="50" height="50" viewBox="0 0 50 50" fill="none" xmlns="http://www.w3.org/2000/svg">
<g clip-path="url(#clip0_23_3485)">
<path d="M25.0075 50C18.5693 50 12.1461 50 5.7079 50C2.28018 50 0 47.7341 0 44.3202C0 36.2105 0 28.1008 0 19.9911C0 16.5623 2.26528 14.2964 5.693 14.2964C18.5544 14.2964 31.4307 14.2964 44.2921 14.2964C47.7347 14.2964 50 16.5623 50 19.9762C50 28.1455 50 36.3 50 44.4693C50 47.0781 48.465 49.1652 46.0209 49.8062C45.4694 49.9553 44.8882 50 44.307 50C37.8689 50.0149 31.4456 50 25.0075 50ZM25.0522 17.8593C18.5991 17.8593 12.1461 17.8593 5.693 17.8593C4.23249 17.8593 3.57675 18.5152 3.56185 19.9613C3.56185 28.071 3.56185 36.1807 3.56185 44.2904C3.56185 45.7663 4.23249 46.4371 5.7079 46.4371C18.5544 46.4371 31.4158 46.4371 44.2623 46.4371C45.7526 46.4371 46.4083 45.7812 46.4083 44.3053C46.4083 36.1956 46.4083 28.0859 46.4083 19.9762C46.4083 18.545 45.7377 17.8593 44.2921 17.8593C37.8838 17.8593 31.4754 17.8593 25.0522 17.8593Z" fill="#04D0E2"/>
<path d="M24.9925 7.15564C31.4903 7.15564 37.9731 7.15564 44.4709 7.15564C45.8569 7.15564 46.7511 8.30352 46.3189 9.52594C46.0655 10.2415 45.529 10.6291 44.7839 10.7185C44.605 10.7335 44.4113 10.7335 44.2325 10.7335C31.4158 10.7335 18.5991 10.7335 5.79729 10.7335C5.46942 10.7335 5.12665 10.7186 4.81368 10.6291C3.99401 10.3757 3.50221 9.55576 3.60653 8.72093C3.72575 7.88611 4.4113 7.23018 5.27568 7.18545C5.45452 7.17055 5.64826 7.18545 5.82709 7.18545C12.2056 7.15564 18.5991 7.15564 24.9925 7.15564Z" fill="#04D0E2"/>
<path d="M25.0521 0C30.3278 0 35.6185 0 40.8942 0C42.2802 0 43.1743 1.16279 42.7421 2.3703C42.4888 3.08587 41.9523 3.47346 41.2071 3.56291C41.0432 3.57782 40.8793 3.57782 40.7004 3.57782C30.2235 3.57782 19.7615 3.57782 9.28462 3.57782C9.03127 3.57782 8.76301 3.57782 8.50966 3.51819C7.63037 3.30948 7.04915 2.48956 7.13857 1.61002C7.22799 0.730471 7.95824 0.0447227 8.86733 0.0149076C9.74662 -0.0149076 10.611 0.0149076 11.4903 0.0149076C16.0208 0 20.5365 0 25.0521 0Z" fill="#04D0E2"/>
<path d="M16.0656 32.1706C16.0656 29.8599 16.0656 27.5642 16.0656 25.2535C16.0656 23.5987 17.3621 22.7788 18.8226 23.5093C23.4426 25.8051 28.0477 28.1307 32.6825 30.4264C33.4128 30.7842 33.8897 31.306 33.9046 32.1408C33.9046 33.0054 33.3979 33.5272 32.6676 33.8999C28.0477 36.1956 23.4277 38.5212 18.8077 40.817C17.3621 41.5326 16.0656 40.7126 16.0656 39.1026C16.0656 36.777 16.0656 34.4664 16.0656 32.1706ZM19.6721 27.907C19.6721 30.7544 19.6721 33.5272 19.6721 36.3894C22.5037 34.9732 25.2757 33.5868 28.1371 32.1557C25.2459 30.6948 22.4888 29.3233 19.6721 27.907Z" fill="#04D0E2"/>
</g>
<defs>
<clipPath id="clip0_23_3485">
<rect width="50" height="50" fill="white"/>
</clipPath>
</defs>
</svg>
