<svg width="24" height="24" viewBox="0 0 24 24" fill="none" xmlns="http://www.w3.org/2000/svg">
<g clip-path="url(#clip0_390_191)">
<path d="M0 1.0625C0.212833 0.28125 0.657277 0 1.30829 0C8.4507 0.015625 15.5994 0.015625 22.7418 0C23.5117 0 24 0.617188 24 1.5625C23.9812 8.52344 23.9937 15.4766 23.9937 22.4375C23.9937 23.4922 23.5931 23.9844 22.7418 23.9844C20.338 23.9844 17.9343 23.9844 15.5243 23.9844C15.4491 23.9844 15.3678 23.9922 15.2926 23.9766C15.0986 23.9297 14.9859 23.7813 14.9922 23.5312C14.9984 23.2891 15.1111 23.1562 15.2926 23.1172C15.3678 23.1016 15.4491 23.1094 15.5243 23.1094C17.9343 23.1094 20.3505 23.1094 22.7606 23.1094C23.1862 23.1094 23.2801 22.9844 23.2801 22.4531C23.2801 16.8281 23.2801 11.2031 23.2801 5.58594C23.2801 5.49219 23.2801 5.39844 23.2801 5.27344C23.1737 5.27344 23.0923 5.27344 23.011 5.27344C21.8529 5.27344 20.7011 5.27344 19.543 5.27344C19.4679 5.27344 19.3865 5.28125 19.3114 5.25781C19.1299 5.20313 19.0297 5.04688 19.036 4.8125C19.0485 4.58594 19.1549 4.4375 19.3427 4.40625C19.4116 4.39062 19.4804 4.39844 19.5556 4.39844C20.7011 4.39844 21.8529 4.39844 22.9984 4.39844C23.0861 4.39844 23.1674 4.39844 23.2864 4.39844C23.2864 4.1875 23.2864 4 23.2864 3.80469C23.2864 3.04688 23.2864 2.28125 23.2864 1.52344C23.2864 1.01562 23.1862 0.890625 22.7731 0.890625C16.4257 0.890625 10.0782 0.890625 3.73083 0.890625C2.88576 0.890625 2.04695 0.890625 1.20188 0.890625C0.813772 0.890625 0.707355 1.02344 0.707355 1.51562C0.707355 2.46094 0.707355 3.40625 0.707355 4.39062C0.813772 4.39062 0.913928 4.39062 1.01408 4.39062C6.59155 4.39062 12.1628 4.39062 17.7402 4.39062C17.8153 4.39062 17.8967 4.39062 17.9718 4.39062C18.1909 4.40625 18.3286 4.57812 18.3286 4.82812C18.3286 5.0625 18.1909 5.24219 17.9906 5.26562C17.9155 5.27344 17.8341 5.26562 17.759 5.26562C12.1815 5.26562 6.61033 5.26562 1.03286 5.26562C0.932707 5.26562 0.832551 5.26562 0.707355 5.26562C0.707355 5.39844 0.707355 5.5 0.707355 5.60156C0.707355 11.2188 0.707355 16.8281 0.707355 22.4453C0.707355 22.9922 0.801252 23.1016 1.2457 23.1016C5.40845 23.1016 9.57121 23.1016 13.734 23.1016C13.8028 23.1016 13.8779 23.0938 13.9468 23.1016C14.1471 23.125 14.2911 23.3125 14.2848 23.5391C14.2848 23.7656 14.1408 23.9531 13.9405 23.9766C13.8654 23.9844 13.784 23.9766 13.7089 23.9766C9.57747 23.9766 5.44601 23.9688 1.31455 23.9844C0.663537 23.9844 0.219092 23.7031 0.00625978 22.9219C0 15.6484 0 8.35156 0 1.0625Z" fill="#84828A"/>
<path d="M11.5029 9C14.1823 9 16.8618 9 19.5489 9C20.4779 9 20.9923 9.53422 21 10.5136C21 12.8448 21 15.1759 21 17.5071C21 18.4541 20.4856 18.9964 19.595 18.9964C15.595 18.9964 11.5873 18.9964 7.58733 18.9964C7.51823 18.9964 7.44914 18.9964 7.38772 18.9883C7.15739 18.9559 7.01919 18.8183 7.00384 18.5755C6.98848 18.3165 7.119 18.1546 7.35701 18.0979C7.45681 18.0737 7.5643 18.0818 7.67178 18.0818C11.6104 18.0818 15.5413 18.0818 19.4798 18.0818C20.0326 18.0818 20.1324 17.9765 20.1324 17.3937C20.1324 15.1112 20.1324 12.8286 20.1324 10.546C20.1324 10.028 20.0096 9.89846 19.5259 9.89846C14.1747 9.89846 8.82342 9.89846 3.46449 9.89846C2.99616 9.89846 2.86564 10.0361 2.86564 10.5298C2.86564 12.8448 2.86564 15.1516 2.86564 17.4666C2.86564 17.9442 2.99616 18.0818 3.44146 18.0818C4.14779 18.0818 4.8618 18.0818 5.56814 18.0818C5.92131 18.0818 6.12092 18.2517 6.12092 18.5512C6.11324 18.8345 5.92898 18.9964 5.58349 18.9964C4.83877 18.9964 4.08637 19.0045 3.34165 18.9964C2.54319 18.9883 2.00576 18.4298 2.00576 17.588C1.99808 15.1921 1.99808 12.8043 2.00576 10.4084C2.00576 9.5585 2.55854 9 3.37236 9C6.08253 9 8.79271 9 11.5029 9Z" fill="#84828A"/>
<path d="M9 16.489C9 16.7729 8.85166 16.9191 8.62478 16.9793C8.38917 17.0396 8.18847 16.9707 8.08375 16.7385C7.97031 16.4804 7.89178 16.2137 7.76961 15.9642C7.72598 15.8782 7.59509 15.7749 7.4991 15.7749C6.83591 15.7577 6.17273 15.7749 5.50954 15.7577C5.33502 15.7577 5.26521 15.8266 5.21285 15.9728C5.13431 16.1965 5.04705 16.4115 4.95979 16.6352C4.8289 16.9535 4.60202 17.0654 4.32278 16.9621C4.04355 16.8589 3.93011 16.618 4.04355 16.3083C4.67183 14.6738 5.30011 13.0478 5.92839 11.4219C6.03311 11.1552 6.21636 10.9917 6.51305 11.0003C6.80974 11.0003 6.99299 11.1724 7.0977 11.4305C7.71726 13.0564 8.33681 14.6738 8.95637 16.2997C8.97382 16.3771 8.98255 16.446 9 16.489ZM6.49559 12.6435C6.1989 13.4091 5.93712 14.0888 5.66661 14.7942C6.23381 14.7942 6.74865 14.7942 7.31585 14.7942C7.04534 14.0888 6.79228 13.4177 6.49559 12.6435Z" fill="#84828A"/>
<path d="M10.0035 13.9736C10.0035 13.2082 10.0035 12.434 10.0035 11.6686C10.0035 11.1584 10.1538 11.0088 10.6127 11C10.9451 11 11.2853 11 11.6176 11C12.7332 11.0088 13.5086 11.6422 13.833 12.8299C14.0941 13.7889 14.0624 14.7478 13.6431 15.6452C13.2396 16.5161 12.5908 16.9824 11.6888 16.9912C11.3327 16.9912 10.9767 17 10.6207 17C10.1459 17 10.0035 16.8504 10.0035 16.3138C9.9956 15.5308 10.0035 14.7566 10.0035 13.9736ZM10.9055 15.9707C11.9341 16.1378 12.4721 15.9355 12.8123 15.2669C13.2237 14.4663 13.1842 13.1906 12.7095 12.5132C12.2268 11.827 11.5543 12.0117 10.9055 11.9941C10.9055 13.349 10.9055 14.651 10.9055 15.9707Z" fill="#84828A"/>
<path d="M17.0167 16.9998C16.3437 16.9826 15.7274 16.7249 15.2165 16.2095C14.9651 15.9517 14.9326 15.6683 15.1192 15.4535C15.3057 15.2388 15.5814 15.2559 15.8328 15.5051C16.222 15.8916 16.6843 16.072 17.2195 16.0205C17.3898 16.0033 17.5763 15.9346 17.7304 15.8401C18.2007 15.5308 18.1926 15.024 17.7385 14.6976C17.6087 14.6031 17.4546 14.5344 17.3006 14.4742C16.9113 14.3024 16.514 14.1478 16.1247 13.9674C15.1029 13.4949 14.9408 12.1119 15.8409 11.4161C16.1004 11.2185 16.441 11.0897 16.7572 11.0295C17.4465 10.9093 18.0709 11.167 18.6305 11.6051C18.8575 11.7855 18.8981 12.069 18.7521 12.2837C18.598 12.5071 18.3467 12.5586 18.1115 12.3868C17.7709 12.1463 17.406 11.9573 16.9843 11.9831C16.8302 11.9917 16.6599 12.0346 16.5221 12.1033C16.3031 12.2064 16.1734 12.3954 16.1815 12.6617C16.1896 12.9022 16.3437 13.0397 16.5464 13.117C16.96 13.2888 17.3817 13.452 17.779 13.6496C18.0385 13.7784 18.3061 13.933 18.517 14.1392C19.1251 14.7233 19.1576 15.6425 18.6224 16.3039C18.2007 16.7936 17.6655 17.0083 17.0167 16.9998Z" fill="#84828A"/>
<path d="M4.8328 2.58594C4.83906 3 4.56988 3.33594 4.25064 3.33594C3.93765 3.33594 3.66848 3.00781 3.66222 2.60938C3.65596 2.20313 3.92513 1.86719 4.25064 1.86719C4.57614 1.875 4.82654 2.17969 4.8328 2.58594Z" fill="#84828A"/>
<path d="M5.42676 2.59375C5.42676 2.1875 5.67715 1.875 6.00266 1.875C6.33443 1.875 6.6036 2.20313 6.59734 2.60938C6.59108 3 6.32817 3.33594 6.01518 3.34375C5.69593 3.34375 5.42676 3.00781 5.42676 2.59375Z" fill="#84828A"/>
<path d="M1.90343 2.58584C1.90969 2.17177 2.1726 1.85927 2.51063 1.86709C2.82987 1.8749 3.08653 2.21084 3.08027 2.60146C3.07401 2.99209 2.8111 3.32802 2.49811 3.32802C2.16634 3.33584 1.89717 2.9999 1.90343 2.58584Z" fill="#84828A"/>
</g>
<defs>
<clipPath id="clip0_390_191">
<rect width="24" height="24" fill="white"/>
</clipPath>
</defs>
</svg>
