<svg width="32" height="32" viewBox="0 0 32 32" fill="none" xmlns="http://www.w3.org/2000/svg">
<rect width="32" height="32" rx="16" fill="#04D0E2"/>
<path d="M22.9206 21.209C21.8965 19.4993 20.3183 18.2734 18.4766 17.6923C19.3876 17.1686 20.0954 16.3706 20.4913 15.4208C20.8872 14.4711 20.9493 13.4221 20.668 12.435C20.3868 11.4478 19.7778 10.5771 18.9345 9.95661C18.0912 9.33607 17.0602 9 16 9C14.9398 9 13.9088 9.33607 13.0655 9.95661C12.2222 10.5771 11.6132 11.4478 11.332 12.435C11.0507 13.4221 11.1128 14.4711 11.5087 15.4208C11.9046 16.3706 12.6124 17.1686 13.5234 17.6923C11.6817 18.2727 10.1035 19.4987 9.07937 21.209C9.04182 21.2681 9.0169 21.3339 9.00611 21.4025C8.99531 21.4711 8.99885 21.541 9.01652 21.6083C9.03418 21.6755 9.06561 21.7386 9.10895 21.794C9.1523 21.8493 9.20667 21.8957 9.26888 21.9304C9.33108 21.9651 9.39985 21.9874 9.47113 21.996C9.54241 22.0046 9.61476 21.9993 9.6839 21.9805C9.75304 21.9617 9.81758 21.9297 9.8737 21.8864C9.92983 21.8431 9.9764 21.7894 10.0107 21.7284C11.2775 19.6142 13.5167 18.352 16 18.352C18.4833 18.352 20.7225 19.6142 21.9893 21.7284C22.0236 21.7894 22.0702 21.8431 22.1263 21.8864C22.1824 21.9297 22.247 21.9617 22.3161 21.9805C22.3852 21.9993 22.4576 22.0046 22.5289 21.996C22.6001 21.9874 22.6689 21.9651 22.7311 21.9304C22.7933 21.8957 22.8477 21.8493 22.891 21.794C22.9344 21.7386 22.9658 21.6755 22.9835 21.6083C23.0011 21.541 23.0047 21.4711 22.9939 21.4025C22.9831 21.3339 22.9582 21.2681 22.9206 21.209ZM12.2344 13.6769C12.2344 12.9577 12.4553 12.2547 12.869 11.6567C13.2828 11.0587 13.8709 10.5927 14.559 10.3175C15.247 10.0423 16.0042 9.97024 16.7346 10.1105C17.4651 10.2508 18.1361 10.5972 18.6627 11.1057C19.1893 11.6142 19.5479 12.2621 19.6932 12.9675C19.8385 13.6728 19.764 14.4039 19.479 15.0684C19.1939 15.7328 18.7113 16.3007 18.0921 16.7002C17.4728 17.0998 16.7448 17.3131 16 17.3131C15.0016 17.312 14.0445 16.9286 13.3385 16.2469C12.6325 15.5652 12.2355 14.6409 12.2344 13.6769Z" fill="white"/>
</svg>
