<svg width="20" height="18" viewBox="0 0 20 18" fill="none" xmlns="http://www.w3.org/2000/svg">
<g clip-path="url(#clip0_490_1762)">
<path d="M0 15.8281C0.13702 15.2646 0.459995 14.7985 0.738928 14.3118C3.28848 9.88099 5.84292 5.45015 8.39246 1.0193C8.76437 0.379003 9.2782 0.00507016 10.0024 -5.22045e-05C10.6239 -0.00517457 11.1329 0.271433 11.4754 0.809282C11.8669 1.43421 12.2241 2.08475 12.596 2.72505C14.9596 6.82294 17.3183 10.9208 19.6819 15.0187C20.2104 15.9356 20.0832 16.9242 19.354 17.5594C19.0506 17.8258 18.6983 17.9641 18.3019 17.9846C18.2383 17.9897 18.1698 17.9897 18.1062 17.9897C12.7086 17.9897 7.31099 17.9897 1.91338 17.9897C1.09616 17.9897 0.504037 17.626 0.156594 16.8474C0.0929777 16.704 0.0538292 16.5452 0.00489357 16.3915C0 16.2071 0 16.0176 0 15.8281ZM9.99266 16.6425C12.6743 16.6425 15.356 16.6425 18.0377 16.6425C18.1307 16.6425 18.2236 16.6425 18.3068 16.622C18.6102 16.5503 18.7717 16.2327 18.6543 15.9254C18.6249 15.8434 18.576 15.7666 18.5319 15.6949C15.9237 11.1667 13.3105 6.63341 10.7022 2.10524C10.6044 1.9362 10.5163 1.76204 10.4086 1.59813C10.1933 1.28054 9.8067 1.28054 9.58649 1.59813C9.55224 1.64935 9.52288 1.70057 9.49352 1.7518C6.81674 6.40291 4.13506 11.054 1.45339 15.7102C1.40935 15.7871 1.3653 15.8639 1.33594 15.9459C1.23318 16.2327 1.38977 16.5401 1.6736 16.6169C1.76658 16.6425 1.86445 16.6425 1.96232 16.6425C4.6391 16.6425 7.31588 16.6425 9.99266 16.6425Z" fill="#78797B"/>
<path d="M10.7854 8.95902C10.7609 9.80422 10.7316 10.6494 10.712 11.4895C10.7071 11.7558 10.5897 11.9198 10.3646 12.0222C10.1297 12.1246 9.89479 12.1195 9.65989 12.0427C9.425 11.9659 9.31245 11.7968 9.30267 11.5407C9.24884 9.86056 9.19011 8.18043 9.13628 6.49517C9.1216 6.0444 9.2733 5.79852 9.62564 5.66534C10.0318 5.51167 10.5358 5.609 10.7267 5.92658C10.8197 6.08025 10.8686 6.29539 10.8637 6.4798C10.8588 7.3045 10.8246 8.1292 10.805 8.94878C10.8001 8.95902 10.7903 8.95902 10.7854 8.95902Z" fill="#78797B"/>
<path d="M9.09714 13.9584C9.09224 13.4154 9.49841 12.98 10.0171 12.9749C10.5065 12.9698 10.9371 13.4154 10.942 13.9379C10.9469 14.4501 10.5212 14.9112 10.0367 14.9214C9.52288 14.9316 9.10203 14.4962 9.09714 13.9584Z" fill="#78797B"/>
</g>
<defs>
<clipPath id="clip0_490_1762">
<rect width="20" height="18" fill="white"/>
</clipPath>
</defs>
</svg>
