<svg width="23" height="20" viewBox="0 0 23 20" fill="none" xmlns="http://www.w3.org/2000/svg">
<g clip-path="url(#clip0_490_1741)">
<path d="M0 3.60823C0.0701754 3.46787 0.128655 3.31583 0.216374 3.18717C0.421053 2.90647 0.71345 2.77197 1.06433 2.77197C1.9883 2.77197 2.91813 2.77197 3.84211 2.77197C3.92398 2.77197 4 2.77197 4.11111 2.77197C4.11111 2.6667 4.11111 2.57314 4.11111 2.47957C4.12281 2.01173 4.08772 1.5439 4.15205 1.08191C4.23392 0.462026 4.77778 0.0292779 5.40936 0.0117341C5.73099 3.81792e-05 6.05263 0.00588613 6.37427 0.0117341C6.61404 0.0117341 6.75439 0.140389 6.74854 0.345067C6.74269 0.53805 6.60819 0.660857 6.38596 0.666705C6.08772 0.672553 5.78947 0.666705 5.49123 0.672553C5.05848 0.678401 4.77778 0.959102 4.77778 1.386C4.77193 1.8363 4.77778 2.28659 4.77778 2.76027C9.06433 2.76027 13.3333 2.76027 17.6433 2.76027C17.6433 2.60238 17.6433 2.43863 17.6433 2.27489C17.6433 2.00004 17.6433 1.71934 17.6433 1.44448C17.6433 0.947407 17.3743 0.672553 16.8713 0.672553C13.9649 0.672553 11.0643 0.672553 8.1579 0.672553C8.07602 0.672553 7.99415 0.678401 7.91813 0.660857C7.73684 0.625769 7.63158 0.50881 7.64327 0.321676C7.65497 0.140389 7.76023 0.0292779 7.95322 0.017582C8.01754 0.0117341 8.08187 0.0117341 8.15205 0.0117341C11.0351 0.0117341 13.9181 0.0292779 16.7953 3.81793e-05C17.731 -0.00580977 18.3509 0.660857 18.3041 1.50881C18.2807 1.92401 18.2982 2.33337 18.2982 2.77197C18.4035 2.77197 18.4795 2.77197 18.5556 2.77197C19.462 2.77197 20.3626 2.77197 21.269 2.77197C21.9883 2.77197 22.4152 3.19887 22.4152 3.91232C22.4152 6.68425 22.4152 9.45618 22.4152 12.234C22.4152 12.2924 22.4211 12.3509 22.4094 12.4094C22.3801 12.5907 22.269 12.7018 22.0877 12.7076C21.9064 12.7076 21.7895 12.5965 21.7602 12.4152C21.7485 12.3451 21.7544 12.269 21.7544 12.1989C21.7544 10.1111 21.7544 8.02343 21.7544 5.93571C21.7544 5.84799 21.7544 5.76027 21.7544 5.66086C20.5965 5.66086 19.4561 5.66086 18.3041 5.66086C18.3041 6.25735 18.3041 6.84799 18.3041 7.46787C18.3801 7.46787 18.4561 7.46787 18.5322 7.46787C19.0994 7.46787 19.6725 7.46787 20.2398 7.46787C20.3041 7.46787 20.3743 7.46203 20.4327 7.47957C20.6082 7.52635 20.7134 7.64916 20.6901 7.83045C20.6667 8.02343 20.538 8.12284 20.345 8.12284C19.7485 8.12284 19.1462 8.12284 18.5497 8.12284C18.4737 8.12284 18.3918 8.12284 18.3041 8.12284C18.3041 8.90647 18.3041 9.6667 18.3041 10.4503C18.6959 10.4503 19.0702 10.4503 19.4503 10.4503C19.7544 10.4503 20.0643 10.4445 20.3684 10.4562C20.5731 10.462 20.7076 10.6141 20.7018 10.7895C20.6959 10.9708 20.5614 11.0995 20.3509 11.1053C19.7544 11.1111 19.152 11.1053 18.5556 11.1053C18.4795 11.1053 18.3977 11.1053 18.3099 11.1053C18.3099 11.9123 18.3099 12.6959 18.3099 13.5088C18.5146 13.5088 18.7193 13.5088 18.9181 13.5088C19.386 13.5088 19.8538 13.5088 20.3216 13.5088C20.5556 13.5088 20.7076 13.6433 20.7076 13.8363C20.7076 14.0293 20.5614 14.1579 20.3216 14.1579C19.6608 14.1579 18.9942 14.1579 18.3158 14.1579C18.3158 14.9591 18.3158 15.7544 18.3158 16.5556C18.3567 16.5614 18.3977 16.5673 18.4386 16.5673C19.386 16.5673 20.3333 16.5673 21.2866 16.5673C21.6257 16.5673 21.7602 16.4269 21.7602 16.0819C21.7602 15.386 21.7602 14.6959 21.7602 14C21.7602 13.7252 21.8772 13.579 22.0877 13.579C22.2982 13.579 22.4152 13.7252 22.4152 14.0059C22.4152 14.7135 22.4152 15.4211 22.4152 16.1287C22.4152 16.772 21.9766 17.2164 21.3333 17.2223C20.4152 17.2281 19.4971 17.2223 18.5731 17.2223C18.4912 17.2223 18.4152 17.2223 18.3099 17.2223C18.3041 17.3041 18.2982 17.3743 18.2982 17.4386C18.2982 17.8246 18.2982 18.2106 18.2982 18.5965C18.2924 19.3977 17.731 19.9649 16.9415 19.9766C16.2105 19.9825 15.4795 19.9825 14.7544 19.9766C14.5029 19.9766 14.3684 19.8655 14.3626 19.6609C14.3567 19.4503 14.4971 19.3217 14.7544 19.3217C15.4678 19.3158 16.1871 19.3217 16.9006 19.3217C17.3743 19.3217 17.6491 19.0468 17.6491 18.5731C17.6491 13.579 17.6491 8.59068 17.6491 3.59653C17.6491 3.5439 17.6491 3.49711 17.6491 3.42694C13.3567 3.42694 9.08187 3.42694 4.78363 3.42694C4.78363 3.50881 4.78363 3.59068 4.78363 3.6667C4.78363 8.60822 4.78363 13.5497 4.78363 18.4854C4.78363 19.0644 5.03509 19.3158 5.60234 19.3158C8.05848 19.3158 10.5205 19.3158 12.9766 19.3158C13.3099 19.3158 13.4737 19.4211 13.4795 19.6375C13.4854 19.8655 13.3216 19.9708 12.9708 19.9708C10.5205 19.9708 8.07018 19.9533 5.61404 19.9825C4.7076 19.9942 4.06433 19.3392 4.11696 18.462C4.14035 18.0585 4.12281 17.6492 4.12281 17.2106C4.02924 17.2106 3.95322 17.2106 3.87719 17.2106C3.02339 17.2106 2.16959 17.1872 1.31579 17.2164C0.660819 17.2398 0.222222 17 0.00584795 16.3743C0.00584795 13.8188 0.00584795 11.2632 0.00584795 8.71349C0.0877193 8.65501 0.157895 8.57314 0.245614 8.5439C0.48538 8.46787 0.660819 8.64331 0.660819 8.95325C0.660819 11.3158 0.660819 13.6842 0.660819 16.0468C0.660819 16.4328 0.789474 16.5614 1.16959 16.5614C2.08187 16.5614 2.99415 16.5614 3.90643 16.5614C3.97661 16.5614 4.04678 16.5614 4.11111 16.5614C4.11111 12.9006 4.11111 9.27489 4.11111 5.64331C2.95906 5.64331 1.81871 5.64331 0.660819 5.64331C0.660819 6.16963 0.660819 6.6784 0.660819 7.18717C0.660819 7.36846 0.649123 7.5439 0.450292 7.62577C0.251462 7.70764 0.122807 7.58483 0.00584795 7.45033C0 6.17548 0 4.89477 0 3.60823ZM4.10526 3.43279C3.05848 3.43279 2.03509 3.42694 1.0117 3.43863C0.812865 3.43863 0.672515 3.57899 0.666667 3.77197C0.649123 4.16378 0.660819 4.56144 0.660819 4.9708C1.81871 4.9708 2.95906 4.9708 4.10526 4.9708C4.10526 4.45618 4.10526 3.9591 4.10526 3.43279ZM18.3158 3.42694C18.3158 3.96495 18.3158 4.46787 18.3158 4.9708C19.4678 4.9708 20.6023 4.9708 21.7544 4.9708C21.7544 4.56144 21.7661 4.16378 21.7485 3.76612C21.7427 3.56729 21.5731 3.43279 21.3567 3.42694C21.1111 3.42109 20.8596 3.42694 20.614 3.42109C19.8538 3.42694 19.0936 3.42694 18.3158 3.42694Z" fill="#78797B"/>
<path d="M12.807 6.94158C11.7485 6.94158 10.6959 6.94158 9.63742 6.94158C9.43274 6.94158 9.29824 6.86555 9.25146 6.66672C9.21052 6.47959 9.36257 6.30415 9.57894 6.28661C9.77777 6.27491 9.97075 6.28076 10.1696 6.28076C12.0702 6.28076 13.9708 6.28076 15.8772 6.28076C15.9474 6.28076 16.0234 6.27491 16.0936 6.28661C16.2807 6.31 16.4094 6.45035 16.4094 6.61994C16.4094 6.80123 16.269 6.93573 16.0643 6.93573C15.6433 6.94158 15.2164 6.93573 14.7953 6.93573C14.1286 6.94158 13.4678 6.94158 12.807 6.94158Z" fill="#78797B"/>
<path d="M12.8304 10.2106C13.8597 10.2106 14.883 10.2106 15.9123 10.2106C15.9825 10.2106 16.0585 10.2047 16.1287 10.2164C16.2982 10.2398 16.4094 10.3568 16.3918 10.5088C16.3801 10.6258 16.2749 10.7427 16.1813 10.8304C16.1345 10.8772 16.0292 10.8655 15.9532 10.8655C13.8713 10.8655 11.7836 10.8655 9.70176 10.8655C9.64913 10.8655 9.5965 10.8714 9.54971 10.8597C9.36258 10.8363 9.23392 10.6901 9.23977 10.5205C9.24562 10.3509 9.38012 10.2106 9.56726 10.2106C10.0059 10.2047 10.4444 10.2047 10.8772 10.2047C11.5322 10.2106 12.1813 10.2106 12.8304 10.2106Z" fill="#78797B"/>
<path d="M12.8187 13.4736C11.8012 13.4736 10.7778 13.4736 9.76023 13.4736C9.67836 13.4736 9.59648 13.4736 9.52046 13.4619C9.35087 13.4386 9.2573 13.3274 9.24561 13.1637C9.23391 13 9.31578 12.883 9.47368 12.8362C9.54385 12.8187 9.61988 12.8128 9.69005 12.8128C11.7836 12.8128 13.8713 12.8128 15.9649 12.8128C16.0409 12.8128 16.152 12.8011 16.193 12.8479C16.2807 12.9356 16.3918 13.0701 16.386 13.1695C16.3743 13.2748 16.2398 13.3742 16.1345 13.4502C16.0819 13.4912 15.9766 13.4678 15.9006 13.4678C14.8772 13.4736 13.8479 13.4736 12.8187 13.4736Z" fill="#78797B"/>
<path d="M12.1403 16.7369C11.3216 16.7369 10.5088 16.7369 9.69005 16.731C9.58479 16.731 9.45029 16.7193 9.38596 16.655C9.30994 16.579 9.25146 16.4328 9.269 16.3392C9.29239 16.2456 9.4152 16.1638 9.50877 16.0936C9.5497 16.0643 9.61988 16.0819 9.67836 16.0819C11.3216 16.0819 12.9591 16.0819 14.6023 16.0819C14.6316 16.0819 14.6608 16.0819 14.6901 16.0819C14.9064 16.0936 15.0526 16.2281 15.0468 16.4152C15.0409 16.5907 14.9006 16.731 14.6959 16.7369C14.3801 16.7427 14.0702 16.7369 13.7544 16.7369C13.2164 16.7369 12.6784 16.7369 12.1403 16.7369Z" fill="#78797B"/>
<path d="M11.8246 8.90062C12.5439 8.90062 13.269 8.89477 13.9883 8.90062C14.269 8.90062 14.4269 9.117 14.3275 9.34507C14.2456 9.5322 14.0877 9.55559 13.9123 9.55559C12.6082 9.55559 11.3041 9.55559 10 9.55559C9.8889 9.55559 9.78363 9.55559 9.67252 9.55559C9.40352 9.54975 9.24562 9.42694 9.25147 9.21641C9.25732 9.01758 9.40352 8.89478 9.66667 8.89478C10.3801 8.90062 11.0994 8.90062 11.8246 8.90062Z" fill="#78797B"/>
<path d="M6.95322 6.77784C7.22808 6.4562 7.49708 6.14626 7.76024 5.82462C7.88305 5.67842 8.01755 5.60825 8.19884 5.69012C8.39182 5.77784 8.4503 6.01175 8.3041 6.18719C7.95322 6.61409 7.5965 7.03515 7.22808 7.45035C7.08773 7.61409 6.91229 7.61409 6.7427 7.47374C6.53217 7.29246 6.32749 7.10532 6.12866 6.91819C5.97077 6.77199 5.96492 6.59655 6.08773 6.45035C6.21638 6.30415 6.40351 6.2983 6.57311 6.43865C6.63743 6.49129 6.69006 6.54392 6.75439 6.59655C6.81872 6.66088 6.8772 6.71351 6.95322 6.77784Z" fill="#78797B"/>
<path d="M6.95322 10.0409C7.23392 9.7134 7.49708 9.39176 7.77778 9.08767C7.8538 9.00579 7.98831 8.92977 8.08772 8.93562C8.18129 8.93562 8.31579 9.03503 8.34503 9.12275C8.38012 9.22217 8.36257 9.38006 8.29825 9.46194C7.95907 9.88884 7.60234 10.304 7.23977 10.7134C7.08772 10.8888 6.91813 10.8888 6.74269 10.7368C6.53801 10.5614 6.33918 10.3801 6.14035 10.1929C5.97661 10.0409 5.96491 9.85375 6.09942 9.70755C6.22222 9.57305 6.40351 9.5672 6.56725 9.7017C6.69006 9.80696 6.80702 9.91808 6.95322 10.0409Z" fill="#78797B"/>
<path d="M6.94736 16.5672C7.19298 16.2806 7.43274 15.9999 7.67251 15.7192C7.72514 15.6608 7.77193 15.5906 7.8304 15.538C7.97076 15.4151 8.1228 15.4093 8.26315 15.5321C8.39766 15.6491 8.43274 15.8128 8.32163 15.9415C7.94736 16.3976 7.56725 16.8479 7.16959 17.2865C7.05263 17.4151 6.88304 17.3918 6.75438 17.2806C6.53216 17.0877 6.31579 16.8947 6.10526 16.6958C5.96491 16.5613 5.96491 16.3801 6.08187 16.2456C6.20467 16.1052 6.38596 16.0935 6.5497 16.2222C6.61988 16.2748 6.68421 16.3391 6.74853 16.3976C6.81871 16.4502 6.87719 16.5029 6.94736 16.5672Z" fill="#78797B"/>
<path d="M6.94736 13.3041C7.21637 12.9883 7.47953 12.6842 7.73684 12.3801C7.91227 12.1696 8.10526 12.1286 8.26315 12.2573C8.42689 12.3918 8.42105 12.5965 8.23391 12.8128C7.91812 13.1871 7.60233 13.5555 7.28654 13.9298C7.08771 14.1637 6.92397 14.1696 6.6959 13.9649C6.50877 13.8011 6.32748 13.6374 6.14619 13.4678C5.98245 13.3099 5.96491 13.1345 6.09941 12.9883C6.22806 12.8479 6.4152 12.8479 6.58479 12.9883C6.70175 13.0818 6.81871 13.1871 6.94736 13.3041Z" fill="#78797B"/>
<path d="M2.78362 10.7778C2.93567 11.0118 3.35672 11.193 3.02924 11.5205C2.7076 11.8363 2.53801 11.4153 2.29824 11.2632C2.21052 11.3509 2.1228 11.4387 2.02339 11.5264C1.86549 11.6609 1.68421 11.655 1.55555 11.5205C1.43275 11.3919 1.43275 11.2106 1.56725 11.0702C1.64912 10.9825 1.75438 10.9123 1.90643 10.7954C1.76608 10.6784 1.66082 10.6082 1.57894 10.5205C1.43275 10.3685 1.43275 10.1872 1.5614 10.0527C1.68421 9.92404 1.88304 9.91819 2.02924 10.0585C2.11696 10.1404 2.19298 10.2457 2.269 10.3334C2.53216 10.1697 2.67836 9.76614 3.04678 10.0527C3.22222 10.193 3.16374 10.3451 2.78362 10.7778Z" fill="#78797B"/>
<path d="M2.34504 14.2983C2.07018 14.4679 1.92983 14.8655 1.56726 14.5848C1.43275 14.4796 1.42106 14.3158 1.52047 14.1696C1.60235 14.0527 1.71346 13.9533 1.84796 13.8071C1.74854 13.7193 1.63743 13.6433 1.55556 13.5498C1.42106 13.4094 1.42691 13.2281 1.55556 13.0995C1.67837 12.9767 1.8655 12.965 2.0117 13.0878C2.06433 13.1287 2.10527 13.1813 2.15205 13.2223C2.19884 13.2691 2.24562 13.31 2.2924 13.3568C2.52632 13.2106 2.67252 12.8071 3.03509 13.0995C3.22223 13.2515 3.16375 13.3977 2.77194 13.8363C2.82457 13.8948 2.88305 13.9591 2.94153 14.0176C3.16375 14.2457 3.19299 14.4269 3.03509 14.5848C2.8772 14.7369 2.70176 14.7077 2.49123 14.4913C2.43275 14.4328 2.39182 14.3626 2.34504 14.2983Z" fill="#78797B"/>
<path d="M2.21053 7.76024C2.38012 7.56141 2.53801 7.36843 2.70176 7.18714C2.8655 7.00585 3.04094 6.97661 3.19883 7.10527C3.35088 7.23392 3.35673 7.42106 3.20468 7.60819C2.98246 7.8772 2.75439 8.1462 2.52632 8.40936C2.35088 8.60819 2.18129 8.61989 1.97661 8.44445C1.84795 8.33334 1.72515 8.22223 1.60234 8.10527C1.4386 7.94737 1.41521 7.76609 1.53801 7.61989C1.66667 7.46784 1.8538 7.46784 2.04094 7.61989C2.09357 7.66082 2.14035 7.70176 2.21053 7.76024Z" fill="#78797B"/>
</g>
<defs>
<clipPath id="clip0_490_1741">
<rect width="22.4152" height="20" fill="white"/>
</clipPath>
</defs>
</svg>
