<svg width="20" height="20" viewBox="0 0 20 20" fill="none" xmlns="http://www.w3.org/2000/svg">
<g clip-path="url(#clip0_490_1768)">
<path d="M8.66444 20C6.48303 20 4.30162 20 2.12577 20C0.845856 20 0.00556641 19.1486 0.00556641 17.8687C0.00556641 13.517 0.00556641 9.15969 0.00556641 4.808C1.58185e-06 3.51139 0.840291 2.6711 2.1369 2.66554C4.71341 2.66554 7.28993 2.66554 9.86645 2.66554C9.95548 2.66554 10.0501 2.65997 10.1336 2.68223C10.4619 2.74901 10.69 3.04951 10.6678 3.37783C10.6455 3.70616 10.3784 3.97327 10.0445 3.99553C9.97774 4.00109 9.9054 3.99553 9.83862 3.99553C7.26767 3.99553 4.70228 3.99553 2.13133 3.99553C1.59154 3.99553 1.34113 4.24595 1.34113 4.78574C1.34113 9.14856 1.34113 13.5058 1.34113 17.8687C1.34113 18.4196 1.59154 18.6644 2.14246 18.6644C6.49416 18.6644 10.8514 18.6644 15.2031 18.6644C15.7596 18.6644 16.0045 18.4196 16.0045 17.8631C16.0045 15.2921 16.0045 12.7267 16.0045 10.1558C16.0045 10.0779 15.9989 9.99998 16.01 9.92764C16.0434 9.58818 16.3383 9.3322 16.6778 9.3322C17.0173 9.3322 17.3011 9.59375 17.34 9.9332C17.3456 9.97216 17.3456 10.0167 17.3456 10.0556C17.3456 12.6934 17.3511 15.3311 17.3456 17.9744C17.3456 18.9148 16.7501 19.6884 15.8598 19.9221C15.6539 19.9777 15.4368 19.9944 15.2198 19.9944C13.0217 20.0055 10.8459 20 8.66444 20Z" fill="#78797B"/>
<path d="M17.6683 1.33556C17.596 1.33556 17.5181 1.33556 17.4457 1.33556C16.0879 1.33556 14.7245 1.34112 13.3667 1.33556C12.8158 1.33556 12.4875 0.779076 12.7657 0.328325C12.9104 0.0946021 13.1274 0 13.4001 0C14.5966 0.00556483 15.7874 0 16.9839 0C17.7463 0 18.5086 0 19.2766 0C19.7329 0 20.0056 0.272677 20.0056 0.723428C20.0056 2.68781 20.0056 4.6522 20.0056 6.61658C20.0056 7.03951 19.7162 7.33445 19.3322 7.33445C18.9538 7.32888 18.6756 7.03395 18.6756 6.62215C18.6756 5.26989 18.6756 3.91208 18.6756 2.55982C18.6756 2.48191 18.6756 2.40957 18.6756 2.28158C18.5865 2.36505 18.5309 2.4207 18.4752 2.47635C15.409 5.54257 12.3372 8.61436 9.27101 11.6806C9.2098 11.7418 9.14302 11.8086 9.07624 11.8642C8.80913 12.0646 8.43629 12.0367 8.20257 11.7974C7.96884 11.5582 7.94658 11.1853 8.15248 10.9238C8.20257 10.857 8.26378 10.8013 8.32499 10.7457C11.3912 7.67947 14.463 4.60768 17.5292 1.54146C17.5849 1.48581 17.6461 1.44686 17.7073 1.39677C17.685 1.37451 17.6739 1.35225 17.6683 1.33556Z" fill="#78797B"/>
</g>
<defs>
<clipPath id="clip0_490_1768">
<rect width="20" height="20" fill="white"/>
</clipPath>
</defs>
</svg>
