<svg width="21" height="20" viewBox="0 0 21 20" fill="none" xmlns="http://www.w3.org/2000/svg">
<g clip-path="url(#clip0_490_1757)">
<path d="M9.3737 0C9.79123 0 10.2088 0 10.6263 0C10.6837 0.0104384 10.7411 0.026096 10.7985 0.0313152C11.2474 0.0991649 11.7067 0.135699 12.1451 0.229645C18.4134 1.58142 21.8058 8.51774 19.0292 14.3006C17.0198 18.5021 12.4739 20.7359 7.89666 19.7756C3.9405 18.9509 0.835073 15.7202 0.151357 11.7276C0.0887265 11.3622 0.0521921 10.9969 0 10.6315C0 10.214 0 9.79645 0 9.37891C0.0626305 8.93528 0.109603 8.49165 0.193111 8.05324C0.939457 4.06576 4.26409 0.808977 8.25678 0.151357C8.62735 0.0939457 9.00313 0.0521921 9.3737 0ZM10 18.7526C14.8173 18.7526 18.7422 14.833 18.7526 10.0104C18.763 5.19311 14.8278 1.25261 10 1.25261C5.18267 1.24739 1.25783 5.16701 1.25261 9.98956C1.24217 14.8121 5.17745 18.7526 10 18.7526Z" fill="#78797B"/>
<path d="M10.6263 14.9374C10.6263 15.1618 10.6315 15.381 10.6263 15.6055C10.6211 15.976 10.3549 16.2474 10.0104 16.2526C9.65553 16.2579 9.38413 15.976 9.37891 15.6002C9.37369 15.3862 9.37891 15.1723 9.37891 14.9426C9.24843 14.8956 9.12317 14.8591 8.99791 14.8121C7.95929 14.4259 7.21816 13.3873 7.19207 12.2756C7.18163 11.8633 7.43215 11.571 7.80271 11.5658C8.16284 11.5606 8.4238 11.832 8.44468 12.2286C8.48121 13.1107 9.19624 13.7787 10.0731 13.7474C10.929 13.7161 11.6023 12.9802 11.5658 12.1138C11.5344 11.284 10.8559 10.6524 9.98434 10.6211C8.79436 10.5794 7.92275 10.0157 7.43215 8.93531C6.72756 7.3852 7.59916 5.57936 9.24321 5.10963C9.28497 5.09919 9.32672 5.07831 9.37891 5.06266C9.37891 4.83823 9.37369 4.61902 9.37891 4.39982C9.38413 4.02925 9.64509 3.75786 9.99478 3.75264C10.3497 3.74742 10.6211 4.02403 10.6263 4.40504C10.6315 4.61902 10.6263 4.83301 10.6263 5.06266C10.6942 5.08353 10.7568 5.10441 10.8246 5.12529C11.9624 5.46975 12.7871 6.54491 12.8132 7.72967C12.8236 8.14199 12.5731 8.43426 12.2025 8.43948C11.8424 8.4447 11.5814 8.1733 11.5605 7.77664C11.524 6.8946 10.809 6.22654 9.93215 6.25786C9.0762 6.28917 8.40814 7.01986 8.43946 7.89147C8.47077 8.72132 9.14927 9.35284 10.0209 9.38416C11.2109 9.42591 12.0825 9.98959 12.5731 11.07C13.2672 12.594 12.4269 14.3946 10.8194 14.8852C10.762 14.8956 10.6994 14.9165 10.6263 14.9374Z" fill="#78797B"/>
</g>
<defs>
<clipPath id="clip0_490_1757">
<rect width="20.0104" height="20" fill="white"/>
</clipPath>
</defs>
</svg>
