<svg width="17" height="17" viewBox="0 0 17 17" fill="none" xmlns="http://www.w3.org/2000/svg">
<path d="M5.37992 15.4334H11.6733C12.3932 15.4334 12.9532 14.8468 12.9532 14.1534V5.48676H13.5132C13.6732 5.48676 13.7799 5.3801 13.7799 5.2201V4.60676C13.7799 4.04676 13.3266 3.6201 12.7932 3.6201H10.5266V2.92676C10.5266 2.47343 10.1532 2.1001 9.69992 2.1001H7.32658C6.87325 2.1001 6.49992 2.47343 6.49992 2.92676V3.6201H4.23325C3.67325 3.6201 3.24658 4.07343 3.24658 4.60676V5.2201C3.24658 5.3801 3.35325 5.48676 3.51325 5.48676H4.07325V14.1534C4.07325 14.8468 4.65992 15.4334 5.37992 15.4334ZM12.4199 14.1534C12.4199 14.5801 12.0732 14.9001 11.6733 14.9001H5.37992C4.95325 14.9001 4.63325 14.5534 4.63325 14.1534V5.48676H12.4466V14.1534H12.4199ZM7.03325 2.92676C7.03325 2.76676 7.16658 2.63343 7.32658 2.63343H9.69992C9.85992 2.63343 9.99325 2.76676 9.99325 2.92676V3.6201H7.05992V2.92676H7.03325ZM3.77992 4.60676C3.77992 4.3401 3.99325 4.15343 4.23325 4.15343H12.7666C13.0332 4.15343 13.2199 4.36676 13.2199 4.60676V4.95343H3.77992V4.60676Z" fill="white"/>
<path d="M10.6067 13.62C10.7667 13.62 10.8733 13.5133 10.8733 13.3533V7.00666C10.8733 6.84666 10.7667 6.73999 10.6067 6.73999C10.4467 6.73999 10.34 6.84666 10.34 7.00666V13.3533C10.34 13.5133 10.4733 13.62 10.6067 13.62ZM8.52665 13.62C8.68665 13.62 8.79332 13.5133 8.79332 13.3533V7.00666C8.79332 6.84666 8.68665 6.73999 8.52665 6.73999C8.36665 6.73999 8.25999 6.84666 8.25999 7.00666V13.3533C8.25999 13.5133 8.36665 13.62 8.52665 13.62ZM6.41999 13.62C6.57999 13.62 6.68665 13.5133 6.68665 13.3533V7.00666C6.68665 6.84666 6.57999 6.73999 6.41999 6.73999C6.25999 6.73999 6.15332 6.84666 6.15332 7.00666V13.3533C6.15332 13.5133 6.25999 13.62 6.41999 13.62Z" fill="white"/>
</svg>
