<svg width="31" height="31" viewBox="0 0 31 31" fill="none" xmlns="http://www.w3.org/2000/svg">
<g clip-path="url(#clip0_1_10758)">
<path d="M23.2842 0.499512H7.34668C3.46343 0.499512 0.31543 3.64751 0.31543 7.53076V23.4683C0.31543 27.3515 3.46343 30.4995 7.34668 30.4995H23.2842C27.1674 30.4995 30.3154 27.3515 30.3154 23.4683V7.53076C30.3154 3.64751 27.1674 0.499512 23.2842 0.499512Z" fill="url(#paint0_radial_1_10758)"/>
<path d="M23.2842 0.499512H7.34668C3.46343 0.499512 0.31543 3.64751 0.31543 7.53076V23.4683C0.31543 27.3515 3.46343 30.4995 7.34668 30.4995H23.2842C27.1674 30.4995 30.3154 27.3515 30.3154 23.4683V7.53076C30.3154 3.64751 27.1674 0.499512 23.2842 0.499512Z" fill="url(#paint1_radial_1_10758)"/>
<path d="M15.3165 3.78076C12.1339 3.78076 11.7344 3.79471 10.4845 3.85154C9.23691 3.90873 8.38531 4.10619 7.64023 4.396C6.86938 4.69529 6.21559 5.09572 5.56426 5.74728C4.91234 6.39873 4.51191 7.05252 4.21168 7.82303C3.92105 8.56834 3.72336 9.42029 3.66723 10.6673C3.61133 11.9173 3.59668 12.3169 3.59668 15.4996C3.59668 18.6823 3.61074 19.0805 3.66746 20.3304C3.72488 21.578 3.92234 22.4296 4.21191 23.1747C4.51145 23.9456 4.91188 24.5994 5.56344 25.2507C6.21465 25.9026 6.86844 26.304 7.63871 26.6033C8.38438 26.8931 9.23609 27.0905 10.4834 27.1477C11.7335 27.2045 12.1326 27.2185 15.3151 27.2185C18.498 27.2185 18.8962 27.2045 20.1461 27.1477C21.3937 27.0905 22.2463 26.8931 22.9919 26.6033C23.7624 26.304 24.4153 25.9026 25.0664 25.2507C25.7183 24.5994 26.1186 23.9456 26.4189 23.1751C26.707 22.4296 26.9048 21.5778 26.9634 20.3307C27.0195 19.0808 27.0342 18.6823 27.0342 15.4996C27.0342 12.3169 27.0195 11.9176 26.9634 10.6675C26.9048 9.41994 26.707 8.56846 26.4189 7.82338C26.1186 7.05252 25.7183 6.39873 25.0664 5.74728C24.4146 5.09549 23.7627 4.69506 22.9912 4.39611C22.2441 4.10619 21.3921 3.90861 20.1445 3.85154C18.8945 3.79471 18.4965 3.78076 15.3129 3.78076H15.3165ZM14.2652 5.8926C14.5773 5.89213 14.9254 5.8926 15.3165 5.8926C18.4455 5.8926 18.8163 5.90385 20.0519 5.95998C21.1945 6.01225 21.8146 6.20314 22.2277 6.36357C22.7746 6.57592 23.1645 6.82986 23.5745 7.24014C23.9846 7.65029 24.2384 8.04088 24.4514 8.58779C24.6118 9.00029 24.8029 9.62045 24.855 10.763C24.9111 11.9984 24.9233 12.3694 24.9233 15.4969C24.9233 18.6244 24.9111 18.9956 24.855 20.2308C24.8027 21.3734 24.6118 21.9936 24.4514 22.4062C24.239 22.9531 23.9846 23.3425 23.5745 23.7524C23.1643 24.1626 22.7749 24.4164 22.2277 24.6289C21.8151 24.79 21.1945 24.9804 20.0519 25.0327C18.8165 25.0888 18.4455 25.101 15.3165 25.101C12.1873 25.101 11.8164 25.0888 10.5812 25.0327C9.43859 24.98 8.81844 24.7891 8.405 24.6287C7.8582 24.4162 7.4675 24.1624 7.05734 23.7522C6.64719 23.3421 6.39336 22.9524 6.18043 22.4053C6.02 21.9926 5.82887 21.3725 5.77684 20.2299C5.7207 18.9945 5.70945 18.6235 5.70945 15.494C5.70945 12.3645 5.7207 11.9955 5.77684 10.7601C5.8291 9.61752 6.02 8.99736 6.18043 8.58428C6.39289 8.03736 6.64719 7.64678 7.05746 7.23662C7.46773 6.82646 7.8582 6.57252 8.40512 6.35971C8.8182 6.19857 9.43859 6.00814 10.5812 5.95564C11.6622 5.90678 12.0812 5.89213 14.2652 5.88967V5.8926ZM21.572 7.83838C20.7956 7.83838 20.1657 8.46768 20.1657 9.24416C20.1657 10.0205 20.7956 10.6504 21.572 10.6504C22.3483 10.6504 22.9782 10.0205 22.9782 9.24416C22.9782 8.46779 22.3483 7.83791 21.572 7.83791V7.83838ZM15.3165 9.48146C11.993 9.48146 9.29844 12.1761 9.29844 15.4996C9.29844 18.8232 11.993 21.5165 15.3165 21.5165C18.64 21.5165 21.3337 18.8232 21.3337 15.4996C21.3337 12.1762 18.6398 9.48146 15.3163 9.48146H15.3165ZM15.3165 11.5933C17.4738 11.5933 19.2228 13.3421 19.2228 15.4996C19.2228 17.6569 17.4738 19.406 15.3165 19.406C13.1592 19.406 11.4103 17.6569 11.4103 15.4996C11.4103 13.3421 13.1591 11.5933 15.3165 11.5933Z" fill="white"/>
</g>
<defs>
<radialGradient id="paint0_radial_1_10758" cx="0" cy="0" r="1" gradientUnits="userSpaceOnUse" gradientTransform="translate(8.28418 32.8101) rotate(-90) scale(29.7322 27.6533)">
<stop stop-color="#FFDD55"/>
<stop offset="0.1" stop-color="#FFDD55"/>
<stop offset="0.5" stop-color="#FF543E"/>
<stop offset="1" stop-color="#C837AB"/>
</radialGradient>
<radialGradient id="paint1_radial_1_10758" cx="0" cy="0" r="1" gradientUnits="userSpaceOnUse" gradientTransform="translate(-4.70969 2.66057) rotate(78.681) scale(13.2905 54.7837)">
<stop stop-color="#3771C8"/>
<stop offset="0.128" stop-color="#3771C8"/>
<stop offset="1" stop-color="#6600FF" stop-opacity="0"/>
</radialGradient>
<clipPath id="clip0_1_10758">
<rect width="30" height="30" fill="white" transform="translate(0.314453 0.5)"/>
</clipPath>
</defs>
</svg>
