<svg width="31" height="31" viewBox="0 0 31 31" fill="none" xmlns="http://www.w3.org/2000/svg">
<g clip-path="url(#clip0_1_10789)">
<path d="M27.9092 1.20323H3.53418C2.98113 1.1976 2.44843 1.4116 2.05297 1.79827C1.65752 2.18494 1.4316 2.71269 1.4248 3.26573V27.7392C1.43283 28.2914 1.65929 28.8179 2.05461 29.2036C2.44993 29.5893 2.98193 29.8026 3.53418 29.797H27.9092C28.4623 29.8014 28.9946 29.5866 29.3899 29.1997C29.7851 28.8128 30.0111 28.2852 30.0186 27.7321V3.2587C30.0087 2.70728 29.7816 2.18205 29.3866 1.79715C28.9916 1.41226 28.4607 1.19882 27.9092 1.20323Z" fill="#0076B2"/>
<path d="M5.65781 11.9209H9.90234V25.5779H5.65781V11.9209ZM7.78125 5.12402C8.26808 5.12402 8.74397 5.26841 9.14872 5.53893C9.55347 5.80944 9.86889 6.19393 10.0551 6.64374C10.2413 7.09356 10.2899 7.58849 10.1947 8.06593C10.0996 8.54337 9.86497 8.98186 9.52057 9.32594C9.17616 9.67001 8.73745 9.90421 8.25992 9.9989C7.78239 10.0936 7.2875 10.0445 6.83787 9.8579C6.38823 9.67128 6.00405 9.35549 5.73392 8.95048C5.46379 8.54547 5.31985 8.06944 5.32031 7.58262C5.32093 6.93034 5.58049 6.30499 6.04193 5.84399C6.50338 5.38298 7.12898 5.12402 7.78125 5.12402ZM12.5648 11.9209H16.6336V13.7959H16.6898C17.257 12.7225 18.6398 11.5904 20.7047 11.5904C25.0031 11.5811 25.8 14.41 25.8 18.0779V25.5779H21.5555V18.9334C21.5555 17.3514 21.5273 15.3146 19.35 15.3146C17.1727 15.3146 16.8023 17.0396 16.8023 18.8303V25.5779H12.5648V11.9209Z" fill="white"/>
</g>
<defs>
<clipPath id="clip0_1_10789">
<rect width="30" height="30" fill="white" transform="translate(0.72168 0.5)"/>
</clipPath>
</defs>
</svg>
