<svg width="31" height="31" viewBox="0 0 31 31" fill="none" xmlns="http://www.w3.org/2000/svg">
<g clip-path="url(#clip0_1_10782)">
<path d="M11.0436 1.48691C8.04612 2.52676 5.46111 4.50043 3.66825 7.11801C1.8754 9.73559 0.969192 12.8591 1.08275 16.0298C1.19631 19.2005 2.32364 22.2512 4.29916 24.7338C6.27468 27.2164 8.99426 29.0001 12.0584 29.8229C14.5426 30.4639 17.1453 30.492 19.6428 29.9049C21.9053 29.3967 23.997 28.3096 25.7131 26.7502C27.4992 25.0776 28.7957 22.9498 29.4631 20.5955C30.1886 18.0354 30.3176 15.343 29.8405 12.7252H15.8905V18.5119H23.9694C23.8079 19.4349 23.4619 20.3157 22.9521 21.1018C22.4422 21.8879 21.779 22.5631 21.0022 23.0869C20.0157 23.7395 18.9036 24.1786 17.7373 24.376C16.5677 24.5935 15.3679 24.5935 14.1983 24.376C13.0128 24.1309 11.8913 23.6416 10.9053 22.9393C9.32128 21.818 8.13189 20.225 7.50687 18.3877C6.87128 16.516 6.87128 14.4868 7.50687 12.615C7.95177 11.303 8.68726 10.1085 9.65843 9.12051C10.7698 7.96913 12.1769 7.14612 13.7252 6.74178C15.2735 6.33743 16.9033 6.36738 18.4358 6.82832C19.6329 7.1958 20.7276 7.83786 21.6327 8.70332C22.5436 7.79707 23.453 6.88848 24.3608 5.97754C24.8295 5.48769 25.3405 5.02129 25.8022 4.51973C24.4207 3.23412 22.7991 2.23377 21.0303 1.57598C17.8093 0.40642 14.2849 0.374989 11.0436 1.48691Z" fill="white"/>
<path d="M11.0432 1.48659C14.2843 0.373908 17.8086 0.404511 21.0299 1.57331C22.799 2.23556 24.4198 3.24074 25.7994 4.53112C25.3307 5.03268 24.8361 5.50143 24.358 5.98893C23.4486 6.89674 22.54 7.80143 21.6322 8.70299C20.7272 7.83753 19.6325 7.19547 18.4354 6.82799C16.9034 6.36543 15.2737 6.33376 13.7249 6.73645C12.1762 7.13914 10.7683 7.96064 9.65566 9.11081C8.68449 10.0988 7.94901 11.2933 7.5041 12.6053L2.64551 8.84362C4.38459 5.39493 7.3957 2.75696 11.0432 1.48659Z" fill="#E33629"/>
<path d="M1.35702 12.5703C1.61817 11.2761 2.05172 10.0227 2.64609 8.84375L7.50468 12.6148C6.86909 14.4866 6.86909 16.5158 7.50468 18.3875C5.88593 19.6375 4.2664 20.8938 2.64609 22.1563C1.15816 19.1945 0.704367 15.8199 1.35702 12.5703Z" fill="#F8BD00"/>
<path d="M15.8907 12.7227H29.8407C30.3179 15.3405 30.1888 18.0328 29.4633 20.593C28.7959 22.9472 27.4995 25.075 25.7133 26.7477C24.1454 25.5242 22.5704 24.3102 21.0024 23.0867C21.7798 22.5624 22.4433 21.8865 22.9531 21.0995C23.463 20.3126 23.8087 19.4308 23.9696 18.507H15.8907C15.8883 16.5805 15.8907 14.6516 15.8907 12.7227Z" fill="#587DBD"/>
<path d="M2.64355 22.1564C4.26387 20.9064 5.8834 19.6502 7.50215 18.3877C8.12842 20.2257 9.3195 21.8187 10.9053 22.9393C11.8944 23.6383 13.0182 24.1236 14.2053 24.3643C15.3749 24.5817 16.5747 24.5817 17.7443 24.3643C18.9106 24.1668 20.0227 23.7278 21.0092 23.0752C22.5771 24.2986 24.1521 25.5127 25.7201 26.7361C24.0042 28.2964 21.9125 29.3843 19.6498 29.8932C17.1523 30.4803 14.5496 30.4521 12.0654 29.8111C10.1007 29.2865 8.26545 28.3617 6.6748 27.0947C4.9912 25.7581 3.61611 24.0736 2.64355 22.1564Z" fill="#319F43"/>
</g>
<defs>
<clipPath id="clip0_1_10782">
<rect width="30" height="30" fill="white" transform="translate(0.592773 0.5)"/>
</clipPath>
</defs>
</svg>
