<svg width="17" height="17" viewBox="0 0 17 17" fill="none" xmlns="http://www.w3.org/2000/svg">
<path d="M14.8536 2.14639C13.9679 1.26077 12.5321 1.26077 11.6465 2.1464L7.39646 6.39639C7.34157 6.45128 7.30022 6.51819 7.27567 6.59183L6.02567 10.3418C5.96578 10.5215 6.01254 10.7195 6.14646 10.8535C6.28038 10.9874 6.47846 11.0341 6.65813 10.9742L10.4081 9.72429C10.4818 9.69974 10.5487 9.65839 10.6036 9.6035L14.8536 5.3535C15.7392 4.46788 15.7392 3.03201 14.8536 2.14639ZM12.3536 2.8535C12.8487 2.35841 13.6514 2.35841 14.1465 2.8535C14.6416 3.34859 14.6416 4.1513 14.1465 4.6464L9.97992 8.81293L7.29058 9.70938L8.18703 7.02004L12.3536 2.8535Z" fill="white"/>
<path d="M8.5 3.5C8.62292 3.5 8.7448 3.50444 8.8655 3.51316L9.74857 2.63009C9.34581 2.54484 8.92814 2.5 8.5 2.5C5.18629 2.5 2.5 5.18629 2.5 8.5C2.5 11.8137 5.18629 14.5 8.5 14.5C11.8137 14.5 14.5 11.8137 14.5 8.5C14.5 8.07184 14.4552 7.65416 14.3699 7.2514L13.4868 8.13446C13.4956 8.25517 13.5 8.37707 13.5 8.5C13.5 11.2614 11.2614 13.5 8.5 13.5C5.73858 13.5 3.5 11.2614 3.5 8.5C3.5 5.73858 5.73858 3.5 8.5 3.5Z" fill="white"/>
</svg>
