<svg width="20" height="22" viewBox="0 0 20 22" fill="none" xmlns="http://www.w3.org/2000/svg">
<path d="M0.75 11C0.75 13.145 0.805292 14.6805 0.985457 15.826C1.16405 16.9615 1.45491 17.6391 1.87242 18.1234C2.29595 18.6148 2.91999 18.99 3.93807 19.3821C4.69499 19.6737 5.60501 19.9522 6.73731 20.2988C7.14484 20.4235 7.58116 20.5571 8.04949 20.7032C9.73832 21.2302 10.9581 21.3478 11.8414 21.1771C12.6799 21.0152 13.2649 20.5851 13.7055 19.854C14.1681 19.0864 14.4776 17.9724 14.6632 16.4616C14.8476 14.9605 14.9022 13.1389 14.9022 11C14.9022 8.86111 14.8476 7.03948 14.6632 5.53841C14.4776 4.02759 14.1681 2.91359 13.7055 2.14597C13.2649 1.41487 12.6799 0.984844 11.8414 0.822868C10.9581 0.652224 9.73831 0.769802 8.04948 1.29676C7.58121 1.44288 7.14495 1.5764 6.73747 1.70112C5.60509 2.0477 4.69502 2.32625 3.93806 2.61782C2.91999 3.00997 2.29596 3.38516 1.87242 3.87649C1.45491 4.36083 1.16405 5.03847 0.985457 6.17399C0.805292 7.31949 0.75 8.85492 0.75 11Z" stroke="#78797B" stroke-width="1.5" stroke-linecap="round" stroke-linejoin="round"/>
<ellipse cx="0.869565" cy="0.880001" rx="0.869565" ry="0.880001" transform="matrix(-1 0 0 1 12.1738 10.2686)" fill="#78797B"/>
<path d="M14.7827 18.9201C19.1305 18.9201 19.1305 17.8501 19.1305 11.1425C19.1305 4.43491 19.1305 3.08008 14.7827 3.08008" stroke="#78797B" stroke-width="1.5" stroke-linecap="round" stroke-linejoin="round"/>
</svg>
