<svg width="18" height="19" viewBox="0 0 18 19" fill="none" xmlns="http://www.w3.org/2000/svg">
<g clip-path="url(#clip0_630_1447)">
<path d="M3.23986 5.07977H0.359863V16.2398C0.359863 17.2323 1.16734 18.0398 2.15986 18.0398H15.8399C16.8324 18.0398 17.6399 17.2323 17.6399 16.2398V0.759766H3.23986V5.07977ZM1.07986 16.2398V5.79977H3.23986V16.2398C3.23986 16.8352 2.7553 17.3198 2.15986 17.3198C1.56442 17.3198 1.07986 16.8352 1.07986 16.2398ZM3.95986 1.47977H16.9199V16.2398C16.9199 16.8352 16.4353 17.3198 15.8399 17.3198H3.59914C3.60994 17.3057 3.6175 17.2895 3.62758 17.2751C3.6481 17.246 3.6661 17.2154 3.68482 17.1848C3.78322 17.0271 3.856 16.8548 3.90046 16.6743C3.90874 16.6404 3.91918 16.608 3.92566 16.5735C3.94654 16.4651 3.95986 16.3542 3.95986 16.2398V1.47977Z" fill="white"/>
<path d="M5.3999 3.2832H15.4799V4.0032H5.3999V3.2832ZM6.8399 5.0832H14.0399V5.8032H6.8399V5.0832ZM11.1599 7.9632H15.4799V8.6832H11.1599V7.9632ZM11.1599 9.7632H15.4799V10.4832H11.1599V9.7632ZM9.7199 7.9632H5.3999V12.2832H9.7199V7.9632ZM8.9999 11.5632H6.1199V8.6832H8.9999V11.5632ZM11.1599 11.5632H15.4799V12.2832H11.1599V11.5632ZM5.3999 13.3632H9.7199V14.0832H5.3999V13.3632ZM11.1599 13.3632H15.4799V14.0832H11.1599V13.3632ZM5.3999 15.1632H9.7199V15.8832H5.3999V15.1632ZM11.1599 15.1632H15.4799V15.8832H11.1599V15.1632Z" fill="white"/>
</g>
<defs>
<clipPath id="clip0_630_1447">
<rect width="18" height="18" fill="white" transform="translate(0 0.400391)"/>
</clipPath>
</defs>
</svg>
