<svg width="50" height="51" viewBox="0 0 50 51" fill="none" xmlns="http://www.w3.org/2000/svg">
<path d="M25 1.5C22.465 1.5 19.9798 1.89111 17.5968 2.6637C17.0713 2.83406 16.8079 3.41186 17.0001 3.92975C17.1923 4.44744 17.767 4.70912 18.293 4.54097C20.4591 3.84849 22.7218 3.49667 25 3.5C37.131 3.5 47 13.369 47 25.5C47 37.631 37.131 47.5 25 47.5C12.869 47.5 3 37.631 3 25.5C3.00192 22.2586 3.72005 19.0577 5.10302 16.1261C6.486 13.1945 8.49966 10.6048 11 8.542V14.5C11 15.0523 11.4477 15.5 12 15.5C12.5523 15.5 13 15.0523 13 14.5V5.5H4C3.44772 5.5 3 5.94772 3 6.5C3 7.05228 3.44772 7.5 4 7.5H9.126C6.5724 9.75236 4.52718 12.5222 3.12617 15.6256C1.72515 18.729 1.00038 22.095 1 25.5C1 38.733 11.767 49.5 25 49.5C38.233 49.5 49 38.733 49 25.5C49 12.267 38.233 1.5 25 1.5Z" fill="#04D0E2"/>
<path d="M19 31H18C17.4477 31 17 31.4477 17 32C17 32.5523 17.4477 33 18 33H32C32.5523 33 33 32.5523 33 32C33 31.4477 32.5523 31 32 31H31V28.8286C31 28.033 30.6839 27.2699 30.1213 26.7073L26.414 23L30.1213 19.2927C30.6839 18.7301 31 17.967 31 17.1714V15H32C32.5523 15 33 14.5523 33 14C33 13.4477 32.5523 13 32 13H18C17.4477 13 17 13.4477 17 14C17 14.5523 17.4477 15 18 15H19V17.1714C19 17.967 19.3161 18.7301 19.8787 19.2927L23.586 23L19.8787 26.7073C19.3161 27.2699 19 28.033 19 28.8286V31ZM21.8787 18.4647C21.3161 17.9021 21 17.139 21 16.3434V15H29V16.3434C29 17.139 28.6839 17.9021 28.1213 18.4647L25 21.586L21.8787 18.4647ZM25 24.414L28.1213 27.5353C28.6839 28.0979 29 28.861 29 29.6566V31H21V29.6566C21 28.861 21.3161 28.0979 21.8787 27.5353L25 24.414ZM19 38C19 37.4477 19.4477 37 20 37C20.5523 37 21 37.4477 21 38C21 38.5523 20.5523 39 20 39C19.4477 39 19 38.5523 19 38ZM24 38C24 37.4477 24.4477 37 25 37C25.5523 37 26 37.4477 26 38C26 38.5523 25.5523 39 25 39C24.4477 39 24 38.5523 24 38ZM29 38C29 37.4477 29.4477 37 30 37C30.5523 37 31 37.4477 31 38C31 38.5523 30.5523 39 30 39C29.4477 39 29 38.5523 29 38Z" fill="#04D0E2"/>
</svg>
