<svg width="85" height="85" viewBox="0 0 85 85" fill="none" xmlns="http://www.w3.org/2000/svg">
<rect width="85" height="85" rx="42.5" fill="#04D0E2"/>
<g clip-path="url(#clip0_16_4518)">
<path d="M59.1302 30.8228C46.7227 30.8228 34.3598 30.8228 21.9524 30.8228C21.9524 30.994 21.9524 31.1398 21.9524 31.2856C21.9524 36.0084 21.9524 40.7313 21.9524 45.4542C21.9524 47.2989 23.0081 48.3513 24.846 48.3513C29.2976 48.3513 33.7429 48.3513 38.1946 48.3513C38.3472 48.3513 38.4999 48.3449 38.6525 48.3576C39.174 48.4083 39.5619 48.8267 39.5619 49.3275C39.5619 49.8347 39.174 50.2404 38.6461 50.2848C38.5571 50.2911 38.4617 50.2911 38.3727 50.2911C33.8002 50.2911 29.2277 50.2975 24.6615 50.2848C22.3021 50.2784 20.4897 48.7697 20.0763 46.4875C20.0064 46.1135 20.0127 45.7267 20.0127 45.3464C20.0064 40.408 20.0064 35.4696 20.0127 30.5375C20.0127 29.4725 19.9936 28.4075 20.0318 27.3425C20.1081 24.9779 22.0223 23.0951 24.3944 23.0063C24.5343 23 24.6679 23 24.8078 23C35.3137 23 45.8133 23.0063 56.3192 22.9937C58.3607 22.9937 59.8551 23.8685 60.6882 25.7259C60.949 26.3028 61.0889 26.9875 61.0953 27.6278C61.1334 30.9052 61.1143 34.1764 61.1143 37.4538C61.1143 38.1575 60.7264 38.5822 60.1286 38.5822C59.5308 38.5822 59.1492 38.1575 59.1429 37.4538C59.1365 35.4252 59.1429 33.403 59.1429 31.3743C59.1302 31.1968 59.1302 31.0193 59.1302 30.8228ZM59.1302 28.8322C59.1302 28.4265 59.1302 28.0779 59.1302 27.7292C59.1111 26.0049 58.0427 24.9462 56.3129 24.9462C51.804 24.9462 47.2951 24.9462 42.7862 24.9462C36.7637 24.9462 30.7412 24.9462 24.7188 24.9462C23.5868 24.9462 22.7473 25.4216 22.2322 26.4296C21.8379 27.1967 21.9651 28.0208 21.9842 28.8386C34.3725 28.8322 46.7227 28.8322 59.1302 28.8322Z" fill="white"/>
<path d="M54.2397 40.5601C60.1922 40.5537 64.9936 45.3336 65 51.2737C65.0064 57.2073 60.2113 61.9936 54.2524 61.9999C48.2999 62.0063 43.4984 57.22 43.4921 51.2863C43.4857 45.3463 48.2808 40.5664 54.2397 40.5601ZM45.4381 51.2483C45.4254 56.0979 49.3619 60.0474 54.2142 60.0601C59.0793 60.0727 63.0413 56.155 63.054 51.3117C63.0667 46.462 59.1365 42.5189 54.2778 42.5063C49.4128 42.4872 45.4508 46.405 45.4381 51.2483Z" fill="white"/>
<path d="M28.8525 43.4825C30.0735 43.4825 31.2945 43.4825 32.5219 43.4825C33.2533 43.4825 33.7048 43.8692 33.6921 44.4651C33.6793 45.0484 33.2342 45.4224 32.5346 45.4224C30.029 45.4224 27.5233 45.4224 25.0177 45.4224C24.4771 45.4224 24.121 45.1878 23.9747 44.7694C23.8348 44.3574 23.9493 43.9009 24.3181 43.6791C24.528 43.5523 24.8014 43.4889 25.0495 43.4889C26.3214 43.4762 27.5869 43.4825 28.8525 43.4825Z" fill="white"/>
<path d="M26.8556 40.5602C26.2451 40.5602 25.6345 40.5665 25.024 40.5602C24.3563 40.5475 23.9238 40.1545 23.9175 39.5903C23.9111 39.0197 24.3499 38.6076 25.0049 38.6013C26.226 38.5886 27.4534 38.5886 28.6744 38.6013C29.3485 38.6076 29.7682 38.988 29.7682 39.5712C29.7746 40.1735 29.3485 40.5538 28.6426 40.5602C28.0512 40.5665 27.4534 40.5602 26.8556 40.5602Z" fill="white"/>
<path d="M54.2333 52.8394C55.2636 51.8124 56.2366 50.8425 57.2032 49.8726C57.8137 49.264 58.3861 49.1752 58.8313 49.6C59.2891 50.0437 59.2001 50.6396 58.5832 51.2609C57.4385 52.402 56.2938 53.5431 55.1491 54.6842C54.4877 55.3371 54.0107 55.3435 53.3557 54.6905C52.459 53.7966 51.556 52.9091 50.6656 52.0026C50.2205 51.5525 50.2268 50.9756 50.6338 50.5762C51.0281 50.1959 51.5814 50.2085 52.0329 50.6143C52.1601 50.7284 52.2746 50.8488 52.3891 50.9693C52.9869 51.5779 53.5847 52.1864 54.2333 52.8394Z" fill="white"/>
</g>
<defs>
<clipPath id="clip0_16_4518">
<rect width="45" height="39" fill="white" transform="translate(20 23)"/>
</clipPath>
</defs>
</svg>
