<svg width="24" height="24" viewBox="0 0 24 24" fill="none" xmlns="http://www.w3.org/2000/svg">
<path d="M10.876 10.1895L9.1562 8.46973L8.0957 9.53023L10.876 12.3105L15.9062 7.28023L14.8457 6.21973L10.876 10.1895Z" fill="#1B6392"/>
<path d="M20.25 9C20.25 4.4445 16.557 0.75 12 0.75C7.4445 0.75 3.75 4.4445 3.75 9C3.75 12.1575 5.52675 14.8988 8.133 16.2855L7.5 23.25L12 20.25L16.5 23.25L15.867 16.2855C17.1904 15.5837 18.2976 14.5347 19.0698 13.2512C19.842 11.9676 20.25 10.4979 20.25 9ZM12 15.75C8.27175 15.75 5.25 12.7283 5.25 9C5.25 5.27175 8.27175 2.25 12 2.25C15.7283 2.25 18.75 5.27175 18.75 9C18.75 12.7283 15.7283 15.75 12 15.75Z" fill="#1B6392"/>
</svg>
