<svg width="20" height="20" viewBox="0 0 20 20" fill="none" xmlns="http://www.w3.org/2000/svg">
<path fill-rule="evenodd" clip-rule="evenodd" d="M10.563 1.2H9.437L8.792 3.778L8.145 3.978C7.76798 4.09417 7.40271 4.24551 7.054 4.43L6.455 4.747L4.175 3.379L3.379 4.176L4.747 6.456L4.43 7.054C4.24516 7.40268 4.0935 7.76795 3.977 8.145L3.778 8.792L1.2 9.437V10.563L3.778 11.208L3.978 11.855C4.09333 12.2337 4.244 12.5973 4.43 12.946L4.747 13.545L3.379 15.825L4.176 16.621L6.456 15.253L7.054 15.57C7.40267 15.7553 7.76633 15.9063 8.145 16.023L8.792 16.222L9.437 18.8H10.563L11.208 16.222L11.855 16.022C12.232 15.9058 12.5973 15.7545 12.946 15.57L13.545 15.253L15.825 16.621L16.621 15.824L15.253 13.544L15.57 12.946C15.7553 12.5973 15.9063 12.2337 16.023 11.855L16.222 11.208L18.8 10.563V9.437L16.222 8.792L16.022 8.145C15.9058 7.76798 15.7545 7.40271 15.57 7.054L15.253 6.455L16.621 4.175L15.824 3.379L13.544 4.747L12.946 4.43C12.5973 4.24516 12.2321 4.0935 11.855 3.977L11.208 3.778L10.563 1.2ZM13.508 3.37L15.341 2.27C15.5321 2.15536 15.7561 2.10786 15.9773 2.13504C16.1985 2.16221 16.4043 2.26251 16.562 2.42L17.58 3.438C17.7375 3.5957 17.8378 3.80149 17.865 4.02271C17.8921 4.24392 17.8446 4.46787 17.73 4.659L16.63 6.492C16.85 6.90533 17.03 7.33867 17.17 7.792L19.243 8.311C19.4592 8.36517 19.6512 8.49005 19.7883 8.66579C19.9255 8.84154 20 9.05807 20 9.281V10.719C20 10.9419 19.9255 11.1585 19.7883 11.3342C19.6512 11.51 19.4592 11.6348 19.243 11.689L17.17 12.208C17.03 12.6613 16.85 13.0947 16.63 13.508L17.73 15.341C17.8446 15.5321 17.8921 15.7561 17.865 15.9773C17.8378 16.1985 17.7375 16.4043 17.58 16.562L16.562 17.58C16.4043 17.7375 16.1985 17.8378 15.9773 17.865C15.7561 17.8921 15.5321 17.8446 15.341 17.73L13.508 16.63C13.0947 16.85 12.6613 17.03 12.208 17.17L11.689 19.243C11.6348 19.4592 11.51 19.6512 11.3342 19.7883C11.1585 19.9255 10.9419 20 10.719 20H9.281C9.05807 20 8.84154 19.9255 8.66579 19.7883C8.49005 19.6512 8.36517 19.4592 8.311 19.243L7.792 17.17C7.3427 17.0312 6.90744 16.8504 6.492 16.63L4.659 17.73C4.46787 17.8446 4.24392 17.8921 4.02271 17.865C3.80149 17.8378 3.5957 17.7375 3.438 17.58L2.42 16.562C2.26251 16.4043 2.16221 16.1985 2.13504 15.9773C2.10786 15.7561 2.15536 15.5321 2.27 15.341L3.37 13.508C3.14964 13.0926 2.96885 12.6573 2.83 12.208L0.757 11.689C0.540919 11.6349 0.349098 11.5101 0.211963 11.3346C0.074827 11.1591 0.000228643 10.9428 0 10.72V9.282C5.86043e-06 9.05907 0.0745022 8.84254 0.211655 8.66679C0.348809 8.49105 0.540753 8.36617 0.757 8.312L2.83 7.793C2.97 7.33967 3.15 6.90633 3.37 6.493L2.27 4.66C2.15536 4.46887 2.10786 4.24492 2.13504 4.02371C2.16221 3.80249 2.26251 3.5967 2.42 3.439L3.438 2.42C3.5957 2.26251 3.80149 2.16221 4.02271 2.13504C4.24392 2.10786 4.46787 2.15536 4.659 2.27L6.492 3.37C6.90533 3.15 7.33867 2.97 7.792 2.83L8.311 0.757C8.36513 0.540919 8.48986 0.349098 8.6654 0.211963C8.84094 0.074827 9.05724 0.000228643 9.28 0H10.718C10.9409 5.86043e-06 11.1575 0.0745022 11.3332 0.211655C11.509 0.348809 11.6338 0.540753 11.688 0.757L12.207 2.83C12.6603 2.97 13.0937 3.15 13.507 3.37H13.508ZM10 12.8C10.7426 12.8 11.4548 12.505 11.9799 11.9799C12.505 11.4548 12.8 10.7426 12.8 10C12.8 9.25739 12.505 8.5452 11.9799 8.0201C11.4548 7.495 10.7426 7.2 10 7.2C9.25739 7.2 8.5452 7.495 8.0201 8.0201C7.495 8.5452 7.2 9.25739 7.2 10C7.2 10.7426 7.495 11.4548 8.0201 11.9799C8.5452 12.505 9.25739 12.8 10 12.8ZM10 14C8.93913 14 7.92172 13.5786 7.17157 12.8284C6.42143 12.0783 6 11.0609 6 10C6 8.93913 6.42143 7.92172 7.17157 7.17157C7.92172 6.42143 8.93913 6 10 6C11.0609 6 12.0783 6.42143 12.8284 7.17157C13.5786 7.92172 14 8.93913 14 10C14 11.0609 13.5786 12.0783 12.8284 12.8284C12.0783 13.5786 11.0609 14 10 14Z" fill="#84828A"/>
</svg>
