<svg width="39" height="40" viewBox="0 0 39 40" fill="none" xmlns="http://www.w3.org/2000/svg">
<g clip-path="url(#clip0_4_120)">
<path d="M34.699 40C23.8349 40 12.9708 40 2.10674 40C2.03482 39.9704 1.96713 39.9365 1.89521 39.9196C0.75296 39.5981 0.00414949 38.6378 0.00414949 37.4447C-8.1079e-05 30.972 -8.1079e-05 24.5034 0.00414949 18.0349C0.00414949 17.1084 0.427206 16.3808 1.20986 15.89C1.41293 15.7631 1.48485 15.6362 1.48485 15.3993C1.48485 14.0793 2.27596 13.3051 3.60436 13.2967C4.01473 13.2967 4.42509 13.2967 4.83546 13.2967C4.86084 13.1698 4.88622 13.0936 4.89468 13.0175C5.16121 10.3099 5.4362 7.60656 5.6858 4.899C5.80849 3.55368 6.65037 2.8514 7.99146 2.98678C10.7794 3.27446 13.5716 3.54944 16.3637 3.82443C16.8249 3.87097 17.0829 4.09942 17.0576 4.44632C17.0279 4.81861 16.7191 5.00476 16.2495 4.95822C13.4193 4.67901 10.589 4.39979 7.75878 4.1248C7.16227 4.06557 6.9042 4.26864 6.84497 4.86092C6.58691 7.41195 6.33731 9.96298 6.08347 12.514C5.98617 13.4913 5.8931 14.4728 5.79579 15.45C6.48538 15.5896 6.5023 15.5769 6.56576 14.9339C6.76882 12.8482 6.97612 10.7668 7.18342 8.68112C7.23842 8.11846 7.49648 7.6954 8.03376 7.47541C8.6895 7.20888 9.21409 6.7816 9.61176 6.19355C9.92483 5.73242 10.369 5.54627 10.9232 5.60127C12.3066 5.74088 13.69 5.87203 15.0734 6.01163C15.5303 6.05817 15.7842 6.30354 15.7376 6.65468C15.6911 7.01005 15.4119 7.17927 14.9423 7.13696C13.6223 7.00582 12.3066 6.88313 10.9867 6.73929C10.7371 6.71391 10.5806 6.77314 10.4367 6.98889C9.99675 7.6404 9.40447 8.12692 8.68104 8.42729C8.40605 8.54151 8.31721 8.7065 8.29183 8.97726C8.18606 10.1026 8.07184 11.2322 7.96184 12.3575C7.86031 13.3897 7.76301 14.422 7.66147 15.5093C8.46951 15.5093 9.24794 15.4923 10.0221 15.5177C10.331 15.5262 10.5086 15.4204 10.6821 15.1666C13.8339 10.5087 16.9983 5.86779 20.1459 1.21417C20.5224 0.659968 20.9412 0.198837 21.6012 0C21.8339 0 22.0708 0 22.3035 0C22.5361 0.109995 22.79 0.190375 23.0015 0.329984C26.8556 2.95293 30.7096 5.58012 34.5594 8.21999C35.4478 8.82919 35.6424 9.89952 35.0544 10.8006C34.5848 11.5198 34.094 12.2221 33.6118 12.9328C33.5441 13.0344 33.4806 13.1444 33.3833 13.3009C33.5779 13.3009 33.7048 13.2924 33.8318 13.3009C34.7752 13.3559 35.5155 13.9651 35.6847 14.8535C35.7355 15.1327 35.6974 15.4246 35.727 15.7081C35.7397 15.835 35.7863 15.9958 35.8751 16.0762C36.5351 16.66 36.8101 17.3876 36.8058 18.2591C36.7932 19.8329 36.8016 21.4109 36.8016 22.9847C36.8016 23.1243 36.8016 23.2639 36.8016 23.4331C36.9878 23.4331 37.1316 23.4331 37.2712 23.4331C38.1639 23.4416 38.6758 23.9492 38.6758 24.8377C38.68 26.7922 38.68 28.7425 38.6758 30.697C38.6758 31.5389 38.1639 32.0508 37.3177 32.0762C37.157 32.0804 36.992 32.0762 36.8016 32.0762C36.8016 32.275 36.8016 32.4146 36.8016 32.5584C36.8016 34.1872 36.8101 35.8117 36.7974 37.4405C36.7889 38.6378 36.0486 39.5939 34.9105 39.9196C34.8386 39.9408 34.7709 39.9746 34.699 40ZM35.6382 32.0762C35.4394 32.0762 35.2828 32.0762 35.1305 32.0762C33.5441 32.0762 31.9618 32.0888 30.3754 32.0719C27.4817 32.0465 25.4595 29.5843 26.0433 26.8176C26.4452 24.918 28.167 23.4669 30.1046 23.4416C31.8053 23.4162 33.5102 23.4331 35.2109 23.4331C35.3505 23.4331 35.4859 23.4331 35.6213 23.4331C35.6213 22.5151 35.6213 21.652 35.6213 20.7932C24.1184 20.7932 12.6493 20.7932 1.18025 20.7932C1.18025 25.4553 1.18025 30.092 1.18025 34.7541C2.19135 34.7541 3.16438 34.7499 4.13741 34.7583C4.53509 34.7626 4.75507 34.9656 4.76777 35.2998C4.78046 35.6552 4.55201 35.871 4.13741 35.8794C3.7482 35.8879 3.35899 35.8837 2.96978 35.8837C2.3775 35.8837 1.78099 35.8837 1.17602 35.8837C1.17602 36.5436 1.10833 37.1613 1.2014 37.7578C1.25217 38.0751 1.51869 38.4347 1.79368 38.6166C2.06867 38.7985 2.4748 38.8535 2.82594 38.8535C13.2077 38.8662 23.5896 38.862 33.9756 38.862C34.1194 38.862 34.2633 38.862 34.4029 38.8535C34.9782 38.807 35.5282 38.4135 35.5959 37.8466C35.6721 37.2121 35.6128 36.5648 35.6128 35.8879C35.4267 35.8879 35.2575 35.8879 35.0925 35.8879C26.1533 35.8879 17.2099 35.8879 8.27068 35.8879C8.10145 35.8879 7.93223 35.8964 7.76301 35.8752C7.46264 35.8371 7.29765 35.6298 7.28918 35.3421C7.28072 35.0333 7.44572 34.8218 7.76301 34.7753C7.91531 34.7541 8.07607 34.7626 8.22837 34.7626C17.1929 34.7626 26.1617 34.7626 35.1263 34.7626C35.2913 34.7626 35.4563 34.7626 35.6297 34.7626C35.6382 33.8403 35.6382 32.9857 35.6382 32.0762ZM35.6551 19.6002C35.6551 19.1391 35.6551 18.7245 35.6551 18.3099C35.6551 17.1507 35.1517 16.6473 33.9925 16.6473C23.598 16.6473 13.1993 16.6473 2.80478 16.6473C2.68633 16.6473 2.5721 16.643 2.45365 16.6515C1.85291 16.6896 1.26486 17.1211 1.19717 17.6965C1.12948 18.3141 1.18448 18.9529 1.18448 19.6002C12.6662 19.6002 24.1353 19.6002 35.6551 19.6002ZM26.3183 15.5008C26.919 15.5008 27.5028 15.5093 28.0824 15.4923C28.1839 15.4881 28.3109 15.3823 28.3743 15.285C29.0385 14.3205 29.7027 13.3559 30.3415 12.3786C30.4219 12.2559 30.4431 12.0233 30.3838 11.8964C30.0242 11.1518 29.8593 10.3733 29.9354 9.54839C29.9566 9.30725 29.8719 9.16764 29.6773 9.03649C27.7947 7.75886 25.9164 6.477 24.0422 5.18667C23.8349 5.04283 23.6699 5.02591 23.4415 5.14437C22.7561 5.49551 22.0158 5.63511 21.2501 5.55896C20.9539 5.52935 20.7805 5.60973 20.6112 5.86356C18.5129 8.96457 16.4018 12.0613 14.2992 15.1581C14.2358 15.2512 14.185 15.3527 14.0962 15.505C14.9677 15.505 15.7842 15.4923 16.5964 15.5135C16.8883 15.5219 16.9645 15.4077 16.9983 15.137C17.3368 12.5352 19.9386 10.7033 22.5108 11.2152C24.1268 11.5325 25.9967 12.844 26.3183 15.5008ZM33.616 24.5669C32.5795 24.5669 31.5388 24.5584 30.5023 24.5711C30.1808 24.5754 29.8508 24.588 29.5377 24.6642C27.9936 25.028 26.9275 26.5003 27.0882 28.0106C27.2701 29.6943 28.5689 30.9254 30.2315 30.9381C32.5414 30.9551 34.8513 30.9381 37.1654 30.9508C37.5039 30.955 37.542 30.8027 37.542 30.5278C37.5335 28.679 37.5335 26.8345 37.5462 24.9857C37.5504 24.6642 37.4489 24.5584 37.1274 24.5627C35.9513 24.5754 34.7836 24.5669 33.616 24.5669ZM29.6435 15.4543C30.1935 15.5896 30.5277 15.4839 30.8323 15.0143C31.8476 13.4447 32.9264 11.909 33.9798 10.3607C34.3902 9.75992 34.331 9.44262 33.7302 9.03226C30.0073 6.48969 26.2844 3.94712 22.5615 1.40455C21.9566 0.994183 21.6435 1.05341 21.2374 1.65415C18.1787 6.14701 15.1242 10.6399 12.0697 15.137C12.002 15.2385 11.9386 15.3485 11.8709 15.4585C12.4209 15.6023 12.7678 15.4712 13.0639 14.9847C13.6223 14.0624 14.2654 13.1909 14.8704 12.3025C16.4949 9.91645 18.1194 7.53041 19.7355 5.14014C20.0613 4.66208 20.4759 4.35748 21.0639 4.42094C21.7873 4.50132 22.4558 4.38287 23.103 4.05711C23.598 3.80328 24.0803 3.84558 24.5372 4.15865C26.5129 5.50397 28.4843 6.85352 30.46 8.20307C30.9338 8.52459 31.1327 8.97726 31.065 9.54839C30.993 10.1745 31.0903 10.7795 31.3865 11.3252C31.7334 11.964 31.6615 12.5309 31.2469 13.1063C30.7054 13.8636 30.1935 14.642 29.6435 15.4543ZM18.1152 15.4712C20.4716 15.4712 22.7984 15.4712 25.1252 15.4712C25.0449 13.7282 23.4415 12.2729 21.6393 12.2686C19.8159 12.2644 18.221 13.707 18.1152 15.4712ZM31.873 15.4881C32.8206 15.4881 33.6921 15.4881 34.5594 15.4881C34.6102 15.0312 34.534 14.6716 34.2337 14.6039C33.7048 14.4897 33.1464 14.5066 32.5964 14.4728C32.571 14.4728 32.5372 14.5151 32.516 14.5489C32.313 14.8408 32.1099 15.137 31.873 15.4881ZM4.72123 14.4474C4.29817 14.4474 3.87512 14.4389 3.45206 14.4474C2.85132 14.4601 2.55941 14.8408 2.67364 15.5008C3.02477 15.5008 3.38014 15.5008 3.73974 15.5008C4.71277 15.505 4.71277 15.505 4.72123 14.4474Z" fill="#04D0E2"/>
<path d="M32.6855 27.7651C32.6813 29.0385 31.6364 30.075 30.3714 30.0665C29.1065 30.0581 28.07 29.0047 28.0742 27.7397C28.0785 26.4705 29.1192 25.4425 30.3968 25.451C31.6829 25.4552 32.6898 26.479 32.6855 27.7651ZM30.3672 28.9158C31.0102 28.9243 31.5433 28.4124 31.5602 27.7693C31.5729 27.1474 31.0356 26.589 30.4053 26.5763C29.7707 26.5636 29.2334 27.0882 29.2249 27.7313C29.2165 28.3828 29.7242 28.9074 30.3672 28.9158Z" fill="#04D0E2"/>
</g>
<defs>
<clipPath id="clip0_4_120">
<rect width="38.6801" height="40" fill="white"/>
</clipPath>
</defs>
</svg>
