<?xml version="1.0" standalone="no"?>
<!DOCTYPE svg PUBLIC "-//W3C//DTD SVG 20010904//EN"
 "http://www.w3.org/TR/2001/REC-SVG-20010904/DTD/svg10.dtd">
<svg version="1.0" xmlns="http://www.w3.org/2000/svg"
 width="24.000000pt" height="24.000000pt" viewBox="0 0 24.000000 24.000000"
 preserveAspectRatio="xMidYMid meet">

<g transform="translate(0.000000,24.000000) scale(0.100000,-0.100000)"
fill="#000000" stroke="none">
<path d="M63 210 c-21 -9 -53 -87 -53 -131 0 -21 31 -34 42 -17 5 9 8 4 8 -14
0 -27 1 -28 60 -28 59 0 60 1 60 28 0 18 3 23 8 14 11 -17 42 -4 42 17 0 10
-7 41 -16 70 -11 39 -21 54 -40 61 -31 12 -81 12 -111 0z m82 -25 c0 -12 -6
-19 -14 -17 -8 2 -18 -3 -23 -10 -5 -8 -7 -2 -3 17 4 24 3 26 -4 10 -7 -15
-10 -16 -10 -4 -1 22 10 30 34 27 12 -2 20 -10 20 -23z m-52 -28 c9 -23 17
-61 17 -85 0 -35 -3 -42 -20 -42 -18 0 -20 7 -21 58 0 60 -1 59 -29 -13 -7
-18 -9 -18 -15 -3 -9 22 22 128 38 128 7 0 20 -19 30 -43z m113 -13 c16 -57
11 -112 -7 -66 -28 69 -28 69 -28 10 -1 -55 -2 -58 -26 -58 -22 0 -25 4 -25
38 0 42 38 131 57 132 7 0 20 -25 29 -56z"/>
<path d="M131 184 c0 -11 3 -14 6 -6 3 7 2 16 -1 19 -3 4 -6 -2 -5 -13z"/>
</g>
</svg>
