<svg width="40" height="40" viewBox="0 0 40 40" fill="none" xmlns="http://www.w3.org/2000/svg">
<g clip-path="url(#clip0_4_84)">
<path d="M19.9947 29.9703C15.1348 29.9703 10.2644 29.9703 5.40454 29.9703C2.84112 29.9703 0.715621 28.2915 0.138852 25.7894C0.0427236 25.3778 0 24.9337 0 24.5005C0 18.1642 0 11.8279 0 5.48073C0.0106809 2.38297 2.31776 0.0217487 5.39386 0.0109174C8.23498 8.6125e-05 11.0761 0.0109174 13.9065 0.0109174C20.785 0.0109174 27.6635 0.0109174 34.5421 0.0109174C37.1696 0.0109174 39.2951 1.67894 39.8718 4.21346C39.968 4.62505 40 5.06914 40 5.50239C40.0107 11.8279 40.0107 18.1533 40 24.4788C40 27.6307 37.6716 29.9811 34.5527 29.9811C29.7036 29.9811 24.8438 29.9703 19.9947 29.9703ZM19.984 28.0315C24.8331 28.0315 29.6822 28.0315 34.5421 28.0315C36.6355 28.0315 38.0881 26.5584 38.0881 24.4355C38.0881 18.1534 38.0881 11.8604 38.0881 5.57821C38.0881 3.42278 36.6462 1.96055 34.5207 1.96055C24.8438 1.96055 15.1669 1.96055 5.48999 1.96055C3.36449 1.94972 1.92256 3.42278 1.92256 5.56738C1.92256 11.8495 1.92256 18.1425 1.92256 24.4247C1.92256 24.663 1.92256 24.9121 1.97597 25.1504C2.2964 26.905 3.66355 28.0207 5.51135 28.0207C10.3284 28.0315 15.1562 28.0315 19.984 28.0315Z" fill="#04D0E2"/>
<path d="M12.0481 36.4906C11.3752 38.6785 9.96535 39.9999 7.69032 39.9999C5.41528 39.9999 4.0054 38.6785 3.3325 36.4906C2.58484 36.4906 1.84786 36.4906 1.10019 36.4906C0.427298 36.4906 0.0107422 36.1115 0.0107422 35.5157C0.0107422 34.9308 0.437979 34.5517 1.10019 34.5409C1.84786 34.5301 2.59552 34.5409 3.32182 34.5409C4.30447 32.1039 5.66094 30.9882 7.701 31.0424C9.97603 31.0966 11.3539 32.3747 12.0374 34.5409C12.1977 34.5409 12.3686 34.5409 12.5394 34.5409C21.2551 34.5409 29.9707 34.5409 38.6863 34.5409C38.9106 34.5409 39.1456 34.5517 39.3592 34.6167C39.7864 34.7467 40.0321 35.18 39.9787 35.6349C39.936 36.079 39.5835 36.4364 39.1349 36.4797C38.964 36.5014 38.7931 36.4906 38.6115 36.4906C29.9173 36.4906 21.2337 36.4906 12.5394 36.4906C12.3899 36.4906 12.219 36.4906 12.0481 36.4906ZM7.66895 32.9812C6.28044 32.992 5.16962 34.1293 5.1803 35.5374C5.19098 36.9455 6.33384 38.0936 7.701 38.0719C9.08951 38.0611 10.2003 36.9021 10.1896 35.5049C10.1896 34.086 9.06815 32.9704 7.66895 32.9812Z" fill="#04D0E2"/>
<path d="M12.4432 14.9904C12.4432 12.5534 12.4432 10.1272 12.4432 7.69014C12.4432 6.91029 12.9025 6.45538 13.554 6.55286C13.6929 6.57452 13.8317 6.63951 13.9599 6.7045C18.6809 9.14154 23.3912 11.5894 28.1121 14.0265C28.5073 14.2323 28.7957 14.503 28.7957 14.9796C28.7957 15.467 28.5073 15.7378 28.1121 15.9328C23.3912 18.3698 18.6809 20.8177 13.9599 23.2547C13.1375 23.6771 12.4432 23.2547 12.4432 22.3124C12.4325 19.8862 12.4432 17.4383 12.4432 14.9904ZM14.3871 20.8718C18.1896 18.9005 21.9279 16.9617 25.741 14.9904C21.9172 13.0083 18.1789 11.0695 14.3871 9.10904C14.3871 13.0516 14.3871 16.9184 14.3871 20.8718Z" fill="#04D0E2"/>
</g>
<defs>
<clipPath id="clip0_4_84">
<rect width="40" height="40" fill="white"/>
</clipPath>
</defs>
</svg>
