<svg width="18" height="17" viewBox="0 0 18 17" fill="none" xmlns="http://www.w3.org/2000/svg">
<path d="M17.0407 15.5607C15.8508 13.5037 14.0172 12.0287 11.8774 11.3295C12.9358 10.6994 13.7582 9.73922 14.2182 8.5965C14.6781 7.45377 14.7503 6.19166 14.4235 5.00397C14.0968 3.81628 13.3892 2.76868 12.4094 2.02207C11.4296 1.27545 10.2318 0.871094 9.00003 0.871094C7.76821 0.871094 6.57044 1.27545 5.59067 2.02207C4.6109 2.76868 3.90331 3.81628 3.57654 5.00397C3.24978 6.19166 3.32193 7.45377 3.78189 8.5965C4.24186 9.73922 5.06422 10.6994 6.12268 11.3295C3.98284 12.0279 2.14925 13.5029 0.959403 15.5607C0.91577 15.6319 0.886828 15.711 0.874285 15.7935C0.861743 15.8761 0.865854 15.9602 0.886376 16.0411C0.906897 16.122 0.943414 16.198 0.993772 16.2646C1.04413 16.3311 1.10731 16.3869 1.17958 16.4287C1.25185 16.4704 1.33175 16.4973 1.41457 16.5076C1.49738 16.518 1.58143 16.5117 1.66176 16.489C1.74209 16.4664 1.81708 16.4279 1.88228 16.3758C1.94749 16.3237 2.00161 16.2591 2.04143 16.1857C3.51331 13.642 6.11487 12.1232 9.00003 12.1232C11.8852 12.1232 14.4867 13.642 15.9586 16.1857C15.9985 16.2591 16.0526 16.3237 16.1178 16.3758C16.183 16.4279 16.258 16.4664 16.3383 16.489C16.4186 16.5117 16.5027 16.518 16.5855 16.5076C16.6683 16.4973 16.7482 16.4704 16.8205 16.4287C16.8927 16.3869 16.9559 16.3311 17.0063 16.2646C17.0566 16.198 17.0932 16.122 17.1137 16.0411C17.1342 15.9602 17.1383 15.8761 17.1258 15.7935C17.1132 15.711 17.0843 15.6319 17.0407 15.5607ZM4.62503 6.49822C4.62503 5.63293 4.88162 4.78706 5.36235 4.0676C5.84308 3.34813 6.52636 2.78738 7.32579 2.45625C8.12522 2.12511 9.00488 2.03847 9.85355 2.20728C10.7022 2.37609 11.4818 2.79277 12.0936 3.40463C12.7055 4.01648 13.1222 4.79603 13.291 5.6447C13.4598 6.49337 13.3731 7.37303 13.042 8.17246C12.7109 8.97189 12.1501 9.65517 11.4306 10.1359C10.7112 10.6166 9.86532 10.8732 9.00003 10.8732C7.84009 10.872 6.72801 10.4106 5.90781 9.59044C5.0876 8.77024 4.62627 7.65816 4.62503 6.49822Z" fill="black"/>
</svg>
